<svg width="606" height="364" viewBox="0 0 606 364" fill="none" xmlns="http://www.w3.org/2000/svg">
<path d="M115 261C119.944 271.311 125.291 281.002 131.002 290H589.998C595.709 281.002 601.056 271.311 606 261H115Z" fill="#9F9DB4"/>
<path d="M320.69 163.8V266.36H392.54V163.8C392.541 163.062 392.306 162.344 391.868 161.75C391.431 161.156 390.815 160.718 390.11 160.5C389.778 160.39 389.43 160.336 389.08 160.34H324.16C323.705 160.339 323.254 160.428 322.833 160.601C322.413 160.775 322.03 161.029 321.708 161.351C321.386 161.672 321.13 162.054 320.955 162.474C320.781 162.894 320.69 163.345 320.69 163.8ZM348.73 199.04C348.749 197.018 349.565 195.086 351.002 193.663C352.438 192.24 354.378 191.442 356.4 191.442C358.422 191.442 360.362 192.24 361.798 193.663C363.234 195.086 364.051 197.018 364.07 199.04V210.94C364.06 212.967 363.247 214.908 361.81 216.338C360.372 217.768 358.427 218.571 356.4 218.571C354.373 218.571 352.428 217.768 350.99 216.338C349.553 214.908 348.74 212.967 348.73 210.94V199.04Z" fill="#2F2E41"/>
<path d="M320.47 263.08V272.97C320.472 273.482 320.675 273.973 321.037 274.336C321.398 274.7 321.888 274.906 322.4 274.91H390.83C391.343 274.907 391.834 274.702 392.195 274.338C392.557 273.975 392.76 273.483 392.76 272.97V263.08H320.47Z" fill="#3F3D56"/>
<path d="M207.66 9.28003V196.54C207.662 198.926 208.611 201.214 210.298 202.902C211.986 204.589 214.274 205.538 216.66 205.54H494.16C496.546 205.538 498.834 204.589 500.522 202.902C502.209 201.214 503.158 198.926 503.16 196.54V9.28003C503.154 6.89575 502.204 4.61088 500.517 2.92587C498.83 1.24086 496.544 0.293067 494.16 0.290039H216.66C214.276 0.293078 211.99 1.2409 210.303 2.9259C208.616 4.61091 207.666 6.89575 207.66 9.28003Z" fill="#3F3D56"/>
<path d="M214.17 11.61V194.23C214.172 195.505 214.68 196.727 215.581 197.629C216.483 198.53 217.705 199.038 218.98 199.04H491.85C493.125 199.038 494.347 198.53 495.249 197.629C496.15 196.727 496.658 195.505 496.66 194.23V11.61C496.66 10.3334 496.153 9.109 495.252 8.20538C494.35 7.30177 493.127 6.79275 491.85 6.78998H218.98C217.703 6.79276 216.48 7.3018 215.578 8.20541C214.677 9.10902 214.17 10.3334 214.17 11.61Z" fill="#99C1F1"/>
<path d="M269.81 277.24C270.088 277.588 270.441 277.869 270.843 278.061C271.244 278.254 271.685 278.352 272.13 278.35H434.47C434.914 278.349 435.352 278.25 435.753 278.059C436.154 277.867 436.507 277.589 436.786 277.245C437.066 276.9 437.265 276.497 437.37 276.065C437.474 275.634 437.481 275.185 437.39 274.75L434.87 262.78C434.766 262.292 434.541 261.838 434.216 261.459C433.891 261.08 433.476 260.788 433.01 260.61C432.672 260.477 432.313 260.41 431.95 260.41H274.64C274.277 260.41 273.918 260.477 273.58 260.61C273.114 260.788 272.699 261.08 272.374 261.459C272.049 261.838 271.825 262.292 271.72 262.78L269.2 274.75C269.11 275.184 269.119 275.633 269.224 276.064C269.33 276.494 269.53 276.896 269.81 277.24Z" fill="#2F2E41"/>
<path d="M426.285 265.566H430.309C430.578 265.566 430.797 265.347 430.797 265.078V263.054C430.797 262.784 430.578 262.566 430.309 262.566H426.285C426.016 262.566 425.797 262.784 425.797 263.054V265.078C425.797 265.347 426.016 265.566 426.285 265.566Z" fill="#3F3D56"/>
<path d="M416.285 265.566H420.309C420.578 265.566 420.797 265.347 420.797 265.078V263.054C420.797 262.784 420.578 262.566 420.309 262.566H416.285C416.016 262.566 415.797 262.784 415.797 263.054V265.078C415.797 265.347 416.016 265.566 416.285 265.566Z" fill="#3F3D56"/>
<path d="M406.285 265.566H410.309C410.578 265.566 410.797 265.347 410.797 265.078V263.054C410.797 262.784 410.578 262.566 410.309 262.566H406.285C406.016 262.566 405.797 262.784 405.797 263.054V265.078C405.797 265.347 406.016 265.566 406.285 265.566Z" fill="#3F3D56"/>
<path d="M396.285 265.566H400.309C400.578 265.566 400.797 265.347 400.797 265.078V263.054C400.797 262.784 400.578 262.566 400.309 262.566H396.285C396.016 262.566 395.797 262.784 395.797 263.054V265.078C395.797 265.347 396.016 265.566 396.285 265.566Z" fill="#3F3D56"/>
<path d="M386.285 265.566H390.309C390.578 265.566 390.797 265.347 390.797 265.078V263.054C390.797 262.784 390.578 262.566 390.309 262.566H386.285C386.016 262.566 385.797 262.784 385.797 263.054V265.078C385.797 265.347 386.016 265.566 386.285 265.566Z" fill="#3F3D56"/>
<path d="M376.285 265.566H380.309C380.578 265.566 380.797 265.347 380.797 265.078V263.054C380.797 262.784 380.578 262.566 380.309 262.566H376.285C376.016 262.566 375.797 262.784 375.797 263.054V265.078C375.797 265.347 376.016 265.566 376.285 265.566Z" fill="#3F3D56"/>
<path d="M366.285 265.566H370.309C370.578 265.566 370.797 265.347 370.797 265.078V263.054C370.797 262.784 370.578 262.566 370.309 262.566H366.285C366.016 262.566 365.797 262.784 365.797 263.054V265.078C365.797 265.347 366.016 265.566 366.285 265.566Z" fill="#3F3D56"/>
<path d="M356.285 265.566H360.309C360.578 265.566 360.797 265.347 360.797 265.078V263.054C360.797 262.784 360.578 262.566 360.309 262.566H356.285C356.016 262.566 355.797 262.784 355.797 263.054V265.078C355.797 265.347 356.016 265.566 356.285 265.566Z" fill="#3F3D56"/>
<path d="M346.285 265.566H350.309C350.578 265.566 350.797 265.347 350.797 265.078V263.054C350.797 262.784 350.578 262.566 350.309 262.566H346.285C346.016 262.566 345.797 262.784 345.797 263.054V265.078C345.797 265.347 346.016 265.566 346.285 265.566Z" fill="#3F3D56"/>
<path d="M336.285 265.566H340.309C340.578 265.566 340.797 265.347 340.797 265.078V263.054C340.797 262.784 340.578 262.566 340.309 262.566H336.285C336.016 262.566 335.797 262.784 335.797 263.054V265.078C335.797 265.347 336.016 265.566 336.285 265.566Z" fill="#3F3D56"/>
<path d="M326.285 265.566H330.309C330.578 265.566 330.797 265.347 330.797 265.078V263.054C330.797 262.784 330.578 262.566 330.309 262.566H326.285C326.016 262.566 325.797 262.784 325.797 263.054V265.078C325.797 265.347 326.016 265.566 326.285 265.566Z" fill="#3F3D56"/>
<path d="M316.285 265.566H320.309C320.578 265.566 320.797 265.347 320.797 265.078V263.054C320.797 262.784 320.578 262.566 320.309 262.566H316.285C316.016 262.566 315.797 262.784 315.797 263.054V265.078C315.797 265.347 316.016 265.566 316.285 265.566Z" fill="#3F3D56"/>
<path d="M306.285 265.566H310.309C310.578 265.566 310.797 265.347 310.797 265.078V263.054C310.797 262.784 310.578 262.566 310.309 262.566H306.285C306.016 262.566 305.797 262.784 305.797 263.054V265.078C305.797 265.347 306.016 265.566 306.285 265.566Z" fill="#3F3D56"/>
<path d="M296.285 265.566H300.309C300.578 265.566 300.797 265.347 300.797 265.078V263.054C300.797 262.784 300.578 262.566 300.309 262.566H296.285C296.016 262.566 295.797 262.784 295.797 263.054V265.078C295.797 265.347 296.016 265.566 296.285 265.566Z" fill="#3F3D56"/>
<path d="M286.285 265.566H290.309C290.578 265.566 290.797 265.347 290.797 265.078V263.054C290.797 262.784 290.578 262.566 290.309 262.566H286.285C286.016 262.566 285.797 262.784 285.797 263.054V265.078C285.797 265.347 286.016 265.566 286.285 265.566Z" fill="#3F3D56"/>
<path d="M276.285 265.566H280.309C280.578 265.566 280.797 265.347 280.797 265.078V263.054C280.797 262.784 280.578 262.566 280.309 262.566H276.285C276.016 262.566 275.797 262.784 275.797 263.054V265.078C275.797 265.347 276.016 265.566 276.285 265.566Z" fill="#3F3D56"/>
<path d="M426.403 270.566H430.427C430.697 270.566 430.915 270.347 430.915 270.078V268.054C430.915 267.784 430.697 267.566 430.427 267.566H426.403C426.134 267.566 425.915 267.784 425.915 268.054V270.078C425.915 270.347 426.134 270.566 426.403 270.566Z" fill="#3F3D56"/>
<path d="M416.403 270.566H420.427C420.697 270.566 420.915 270.347 420.915 270.078V268.054C420.915 267.784 420.697 267.566 420.427 267.566H416.403C416.134 267.566 415.915 267.784 415.915 268.054V270.078C415.915 270.347 416.134 270.566 416.403 270.566Z" fill="#3F3D56"/>
<path d="M406.403 270.566H410.427C410.697 270.566 410.915 270.347 410.915 270.078V268.054C410.915 267.784 410.697 267.566 410.427 267.566H406.403C406.134 267.566 405.915 267.784 405.915 268.054V270.078C405.915 270.347 406.134 270.566 406.403 270.566Z" fill="#3F3D56"/>
<path d="M396.403 270.566H400.427C400.697 270.566 400.915 270.347 400.915 270.078V268.054C400.915 267.784 400.697 267.566 400.427 267.566H396.403C396.134 267.566 395.915 267.784 395.915 268.054V270.078C395.915 270.347 396.134 270.566 396.403 270.566Z" fill="#3F3D56"/>
<path d="M386.403 270.566H390.427C390.697 270.566 390.915 270.347 390.915 270.078V268.054C390.915 267.784 390.697 267.566 390.427 267.566H386.403C386.134 267.566 385.915 267.784 385.915 268.054V270.078C385.915 270.347 386.134 270.566 386.403 270.566Z" fill="#3F3D56"/>
<path d="M376.403 270.566H380.427C380.697 270.566 380.915 270.347 380.915 270.078V268.054C380.915 267.784 380.697 267.566 380.427 267.566H376.403C376.134 267.566 375.915 267.784 375.915 268.054V270.078C375.915 270.347 376.134 270.566 376.403 270.566Z" fill="#3F3D56"/>
<path d="M366.403 270.566H370.427C370.697 270.566 370.915 270.347 370.915 270.078V268.054C370.915 267.784 370.697 267.566 370.427 267.566H366.403C366.134 267.566 365.915 267.784 365.915 268.054V270.078C365.915 270.347 366.134 270.566 366.403 270.566Z" fill="#3F3D56"/>
<path d="M356.403 270.566H360.427C360.697 270.566 360.915 270.347 360.915 270.078V268.054C360.915 267.784 360.697 267.566 360.427 267.566H356.403C356.134 267.566 355.915 267.784 355.915 268.054V270.078C355.915 270.347 356.134 270.566 356.403 270.566Z" fill="#3F3D56"/>
<path d="M346.403 270.566H350.427C350.697 270.566 350.915 270.347 350.915 270.078V268.054C350.915 267.784 350.697 267.566 350.427 267.566H346.403C346.134 267.566 345.915 267.784 345.915 268.054V270.078C345.915 270.347 346.134 270.566 346.403 270.566Z" fill="#3F3D56"/>
<path d="M336.403 270.566H340.427C340.697 270.566 340.915 270.347 340.915 270.078V268.054C340.915 267.784 340.697 267.566 340.427 267.566H336.403C336.134 267.566 335.915 267.784 335.915 268.054V270.078C335.915 270.347 336.134 270.566 336.403 270.566Z" fill="#3F3D56"/>
<path d="M326.403 270.566H330.427C330.697 270.566 330.915 270.347 330.915 270.078V268.054C330.915 267.784 330.697 267.566 330.427 267.566H326.403C326.134 267.566 325.915 267.784 325.915 268.054V270.078C325.915 270.347 326.134 270.566 326.403 270.566Z" fill="#3F3D56"/>
<path d="M316.403 270.566H320.427C320.697 270.566 320.915 270.347 320.915 270.078V268.054C320.915 267.784 320.697 267.566 320.427 267.566H316.403C316.134 267.566 315.915 267.784 315.915 268.054V270.078C315.915 270.347 316.134 270.566 316.403 270.566Z" fill="#3F3D56"/>
<path d="M306.403 270.566H310.427C310.697 270.566 310.915 270.347 310.915 270.078V268.054C310.915 267.784 310.697 267.566 310.427 267.566H306.403C306.134 267.566 305.915 267.784 305.915 268.054V270.078C305.915 270.347 306.134 270.566 306.403 270.566Z" fill="#3F3D56"/>
<path d="M296.403 270.566H300.427C300.697 270.566 300.915 270.347 300.915 270.078V268.054C300.915 267.784 300.697 267.566 300.427 267.566H296.403C296.134 267.566 295.915 267.784 295.915 268.054V270.078C295.915 270.347 296.134 270.566 296.403 270.566Z" fill="#3F3D56"/>
<path d="M286.403 270.566H290.427C290.697 270.566 290.915 270.347 290.915 270.078V268.054C290.915 267.784 290.697 267.566 290.427 267.566H286.403C286.134 267.566 285.915 267.784 285.915 268.054V270.078C285.915 270.347 286.134 270.566 286.403 270.566Z" fill="#3F3D56"/>
<path d="M276.403 270.566H280.427C280.697 270.566 280.915 270.347 280.915 270.078V268.054C280.915 267.784 280.697 267.566 280.427 267.566H276.403C276.134 267.566 275.915 267.784 275.915 268.054V270.078C275.915 270.347 276.134 270.566 276.403 270.566Z" fill="#3F3D56"/>
<path d="M343.403 276.566H382.427C382.697 276.566 382.915 276.347 382.915 276.078V274.054C382.915 273.784 382.697 273.566 382.427 273.566H343.403C343.134 273.566 342.915 273.784 342.915 274.054V276.078C342.915 276.347 343.134 276.566 343.403 276.566Z" fill="#3F3D56"/>
<path d="M232.692 31.9467H488.015C488.281 31.9409 488.533 31.8313 488.719 31.6416C488.905 31.4518 489.009 31.1969 489.009 30.9314C489.009 30.6659 488.905 30.4109 488.719 30.2212C488.533 30.0314 488.281 29.9218 488.015 29.916H232.692C232.426 29.9218 232.174 30.0314 231.988 30.2212C231.803 30.4109 231.699 30.6659 231.699 30.9314C231.699 31.1969 231.803 31.4518 231.988 31.6416C232.174 31.8313 232.426 31.9409 232.692 31.9467Z" fill="#3F3D56"/>
<path d="M470.635 24.7319C473.921 24.7319 476.585 22.0084 476.585 18.6488C476.585 15.2892 473.921 12.5658 470.635 12.5658C467.349 12.5658 464.685 15.2892 464.685 18.6488C464.685 22.0084 467.349 24.7319 470.635 24.7319Z" fill="#3F3D56"/>
<path d="M450.079 24.7319C453.365 24.7319 456.029 22.0084 456.029 18.6488C456.029 15.2892 453.365 12.5658 450.079 12.5658C446.793 12.5658 444.129 15.2892 444.129 18.6488C444.129 22.0084 446.793 24.7319 450.079 24.7319Z" fill="#3F3D56"/>
<path d="M429.523 24.7319C432.809 24.7319 435.473 22.0084 435.473 18.6488C435.473 15.2892 432.809 12.5658 429.523 12.5658C426.237 12.5658 423.573 15.2892 423.573 18.6488C423.573 22.0084 426.237 24.7319 429.523 24.7319Z" fill="#3F3D56"/>
<path d="M243.98 15.18C243.979 15.3238 244.007 15.4663 244.061 15.5994C244.116 15.7325 244.196 15.8537 244.297 15.9558C244.398 16.058 244.519 16.1392 244.651 16.1948C244.784 16.2504 244.926 16.2794 245.07 16.28H259.67C259.959 16.2733 260.233 16.1539 260.435 15.9474C260.637 15.7409 260.75 15.4637 260.75 15.175C260.75 14.8863 260.637 14.6091 260.435 14.4026C260.233 14.1961 259.959 14.0767 259.67 14.07H245.07C244.779 14.0735 244.5 14.1922 244.296 14.4002C244.092 14.6082 243.978 14.8885 243.98 15.18Z" fill="#3F3D56"/>
<path d="M243.98 19.33C243.979 19.4738 244.007 19.6164 244.061 19.7495C244.116 19.8826 244.196 20.0037 244.297 20.1058C244.398 20.208 244.519 20.2892 244.651 20.3448C244.784 20.4004 244.926 20.4294 245.07 20.43H259.67C259.959 20.4236 260.234 20.3044 260.436 20.0979C260.638 19.8913 260.751 19.6139 260.751 19.325C260.751 19.0361 260.638 18.7587 260.436 18.5522C260.234 18.3456 259.959 18.2264 259.67 18.22H245.07C244.779 18.2236 244.5 18.3423 244.296 18.5502C244.092 18.7582 243.978 19.0385 243.98 19.33Z" fill="#3F3D56"/>
<path d="M243.98 23.47C243.978 23.7615 244.092 24.0418 244.296 24.2498C244.5 24.4578 244.779 24.5765 245.07 24.58H259.67C259.959 24.5733 260.233 24.4539 260.435 24.2474C260.637 24.0409 260.75 23.7637 260.75 23.475C260.75 23.1864 260.637 22.9091 260.435 22.7026C260.233 22.4961 259.959 22.3768 259.67 22.37H245.07C244.926 22.3706 244.784 22.3996 244.651 22.4552C244.519 22.5109 244.398 22.5921 244.297 22.6942C244.196 22.7964 244.116 22.9174 244.061 23.0506C244.007 23.1837 243.979 23.3262 243.98 23.47Z" fill="#3F3D56"/>
<path d="M248.492 55.5433H243.246C241.655 55.5433 240.366 56.8327 240.366 58.4232C240.366 60.0138 241.655 61.3032 243.246 61.3032H248.492C250.083 61.3032 251.372 60.0138 251.372 58.4232C251.372 56.8327 250.083 55.5433 248.492 55.5433Z" fill="#E6E6E6"/>
<path d="M308.492 55.5433H303.246C301.655 55.5433 300.366 56.8327 300.366 58.4232C300.366 60.0138 301.655 61.3032 303.246 61.3032H308.492C310.083 61.3032 311.372 60.0138 311.372 58.4232C311.372 56.8327 310.083 55.5433 308.492 55.5433Z" fill="#E6E6E6"/>
<path d="M325.492 55.5433H320.246C318.655 55.5433 317.366 56.8327 317.366 58.4232C317.366 60.0138 318.655 61.3032 320.246 61.3032H325.492C327.083 61.3032 328.372 60.0138 328.372 58.4232C328.372 56.8327 327.083 55.5433 325.492 55.5433Z" fill="#E6E6E6"/>
<path d="M292.172 55.0631H259.566C257.976 55.0631 256.686 56.3526 256.686 57.9431C256.686 59.5337 257.976 60.8231 259.566 60.8231H292.172C293.762 60.8231 295.052 59.5337 295.052 57.9431C295.052 56.3526 293.762 55.0631 292.172 55.0631Z" fill="#E6E6E6"/>
<path d="M372.172 55.0631H339.566C337.976 55.0631 336.686 56.3526 336.686 57.9431C336.686 59.5337 337.976 60.8231 339.566 60.8231H372.172C373.762 60.8231 375.052 59.5337 375.052 57.9431C375.052 56.3526 373.762 55.0631 372.172 55.0631Z" fill="#E6E6E6"/>
<path d="M264.492 68.5433H259.246C257.655 68.5433 256.366 69.8327 256.366 71.4232C256.366 73.0138 257.655 74.3032 259.246 74.3032H264.492C266.083 74.3032 267.372 73.0138 267.372 71.4232C267.372 69.8327 266.083 68.5433 264.492 68.5433Z" fill="#E6E6E6"/>
<path d="M324.492 68.5433H319.246C317.655 68.5433 316.366 69.8327 316.366 71.4232C316.366 73.0138 317.655 74.3032 319.246 74.3032H324.492C326.083 74.3032 327.372 73.0138 327.372 71.4232C327.372 69.8327 326.083 68.5433 324.492 68.5433Z" fill="#E6E6E6"/>
<path d="M341.492 68.5433H336.246C334.655 68.5433 333.366 69.8327 333.366 71.4232C333.366 73.0138 334.655 74.3032 336.246 74.3032H341.492C343.083 74.3032 344.372 73.0138 344.372 71.4232C344.372 69.8327 343.083 68.5433 341.492 68.5433Z" fill="#E6E6E6"/>
<path d="M308.172 68.0631H275.566C273.976 68.0631 272.686 69.3526 272.686 70.9431C272.686 72.5337 273.976 73.8231 275.566 73.8231H308.172C309.762 73.8231 311.052 72.5337 311.052 70.9431C311.052 69.3526 309.762 68.0631 308.172 68.0631Z" fill="#E6E6E6"/>
<path d="M388.172 68.0631H355.566C353.976 68.0631 352.686 69.3526 352.686 70.9431C352.686 72.5337 353.976 73.8231 355.566 73.8231H388.172C389.762 73.8231 391.052 72.5337 391.052 70.9431C391.052 69.3526 389.762 68.0631 388.172 68.0631Z" fill="#E6E6E6"/>
<path d="M280.492 81.5433H275.246C273.655 81.5433 272.366 82.8327 272.366 84.4232C272.366 86.0138 273.655 87.3032 275.246 87.3032H280.492C282.083 87.3032 283.372 86.0138 283.372 84.4232C283.372 82.8327 282.083 81.5433 280.492 81.5433Z" fill="#E6E6E6"/>
<path d="M340.492 81.5433H335.246C333.655 81.5433 332.366 82.8327 332.366 84.4232C332.366 86.0138 333.655 87.3032 335.246 87.3032H340.492C342.083 87.3032 343.372 86.0138 343.372 84.4232C343.372 82.8327 342.083 81.5433 340.492 81.5433Z" fill="#E6E6E6"/>
<path d="M357.492 81.5433H352.246C350.655 81.5433 349.366 82.8327 349.366 84.4232C349.366 86.0138 350.655 87.3032 352.246 87.3032H357.492C359.083 87.3032 360.372 86.0138 360.372 84.4232C360.372 82.8327 359.083 81.5433 357.492 81.5433Z" fill="#E6E6E6"/>
<path d="M324.172 81.0631H291.566C289.976 81.0631 288.686 82.3526 288.686 83.9431C288.686 85.5337 289.976 86.8231 291.566 86.8231H324.172C325.762 86.8231 327.052 85.5337 327.052 83.9431C327.052 82.3526 325.762 81.0631 324.172 81.0631Z" fill="#E6E6E6"/>
<path d="M404.172 81.0631H371.566C369.976 81.0631 368.686 82.3526 368.686 83.9431C368.686 85.5337 369.976 86.8231 371.566 86.8231H404.172C405.762 86.8231 407.052 85.5337 407.052 83.9431C407.052 82.3526 405.762 81.0631 404.172 81.0631Z" fill="#E6E6E6"/>
<path d="M296.492 94.5433H291.246C289.655 94.5433 288.366 95.8327 288.366 97.4232C288.366 99.0138 289.655 100.303 291.246 100.303H296.492C298.083 100.303 299.372 99.0138 299.372 97.4232C299.372 95.8327 298.083 94.5433 296.492 94.5433Z" fill="#E6E6E6"/>
<path d="M356.492 94.5433H351.246C349.655 94.5433 348.366 95.8327 348.366 97.4232C348.366 99.0138 349.655 100.303 351.246 100.303H356.492C358.083 100.303 359.372 99.0138 359.372 97.4232C359.372 95.8327 358.083 94.5433 356.492 94.5433Z" fill="#E6E6E6"/>
<path d="M373.492 94.5433H368.246C366.655 94.5433 365.366 95.8327 365.366 97.4232C365.366 99.0138 366.655 100.303 368.246 100.303H373.492C375.083 100.303 376.372 99.0138 376.372 97.4232C376.372 95.8327 375.083 94.5433 373.492 94.5433Z" fill="#E6E6E6"/>
<path d="M340.172 94.0631H307.566C305.976 94.0631 304.686 95.3526 304.686 96.9431C304.686 98.5337 305.976 99.8231 307.566 99.8231H340.172C341.762 99.8231 343.052 98.5337 343.052 96.9431C343.052 95.3526 341.762 94.0631 340.172 94.0631Z" fill="#E6E6E6"/>
<path d="M308.492 146.237H303.246C301.655 146.237 300.366 147.526 300.366 149.117C300.366 150.707 301.655 151.997 303.246 151.997H308.492C310.083 151.997 311.372 150.707 311.372 149.117C311.372 147.526 310.083 146.237 308.492 146.237Z" fill="#E6E6E6"/>
<path d="M325.492 146.237H320.246C318.655 146.237 317.366 147.526 317.366 149.117C317.366 150.707 318.655 151.997 320.246 151.997H325.492C327.083 151.997 328.372 150.707 328.372 149.117C328.372 147.526 327.083 146.237 325.492 146.237Z" fill="#E6E6E6"/>
<path d="M372.172 146.717H339.566C337.976 146.717 336.686 148.006 336.686 149.597C336.686 151.188 337.976 152.477 339.566 152.477H372.172C373.762 152.477 375.052 151.188 375.052 149.597C375.052 148.006 373.762 146.717 372.172 146.717Z" fill="#E6E6E6"/>
<path d="M248.492 146.237H243.246C241.655 146.237 240.366 147.526 240.366 149.117C240.366 150.707 241.655 151.997 243.246 151.997H248.492C250.083 151.997 251.372 150.707 251.372 149.117C251.372 147.526 250.083 146.237 248.492 146.237Z" fill="#E6E6E6"/>
<path d="M292.172 146.717H259.566C257.976 146.717 256.686 148.006 256.686 149.597C256.686 151.188 257.976 152.477 259.566 152.477H292.172C293.762 152.477 295.052 151.188 295.052 149.597C295.052 148.006 293.762 146.717 292.172 146.717Z" fill="#E6E6E6"/>
<path d="M264.492 133.237H259.246C257.655 133.237 256.366 134.526 256.366 136.117C256.366 137.707 257.655 138.997 259.246 138.997H264.492C266.083 138.997 267.372 137.707 267.372 136.117C267.372 134.526 266.083 133.237 264.492 133.237Z" fill="#E6E6E6"/>
<path d="M324.492 133.237H319.246C317.655 133.237 316.366 134.526 316.366 136.117C316.366 137.707 317.655 138.997 319.246 138.997H324.492C326.083 138.997 327.372 137.707 327.372 136.117C327.372 134.526 326.083 133.237 324.492 133.237Z" fill="#E6E6E6"/>
<path d="M341.492 133.237H336.246C334.655 133.237 333.366 134.526 333.366 136.117C333.366 137.707 334.655 138.997 336.246 138.997H341.492C343.083 138.997 344.372 137.707 344.372 136.117C344.372 134.526 343.083 133.237 341.492 133.237Z" fill="#E6E6E6"/>
<path d="M308.172 133.717H275.566C273.976 133.717 272.686 135.006 272.686 136.597C272.686 138.188 273.976 139.477 275.566 139.477H308.172C309.762 139.477 311.052 138.188 311.052 136.597C311.052 135.006 309.762 133.717 308.172 133.717Z" fill="#E6E6E6"/>
<path d="M280.492 120.237H275.246C273.655 120.237 272.366 121.526 272.366 123.117C272.366 124.707 273.655 125.997 275.246 125.997H280.492C282.083 125.997 283.372 124.707 283.372 123.117C283.372 121.526 282.083 120.237 280.492 120.237Z" fill="#E6E6E6"/>
<path d="M340.492 120.237H335.246C333.655 120.237 332.366 121.526 332.366 123.117C332.366 124.707 333.655 125.997 335.246 125.997H340.492C342.083 125.997 343.372 124.707 343.372 123.117C343.372 121.526 342.083 120.237 340.492 120.237Z" fill="#E6E6E6"/>
<path d="M357.492 120.237H352.246C350.655 120.237 349.366 121.526 349.366 123.117C349.366 124.707 350.655 125.997 352.246 125.997H357.492C359.083 125.997 360.372 124.707 360.372 123.117C360.372 121.526 359.083 120.237 357.492 120.237Z" fill="#E6E6E6"/>
<path d="M324.172 120.717H291.566C289.976 120.717 288.686 122.006 288.686 123.597C288.686 125.188 289.976 126.477 291.566 126.477H324.172C325.762 126.477 327.052 125.188 327.052 123.597C327.052 122.006 325.762 120.717 324.172 120.717Z" fill="#E6E6E6"/>
<path d="M296.492 107.237H291.246C289.655 107.237 288.366 108.526 288.366 110.117C288.366 111.707 289.655 112.997 291.246 112.997H296.492C298.083 112.997 299.372 111.707 299.372 110.117C299.372 108.526 298.083 107.237 296.492 107.237Z" fill="#E6E6E6"/>
<path d="M356.492 107.237H351.246C349.655 107.237 348.366 108.526 348.366 110.117C348.366 111.707 349.655 112.997 351.246 112.997H356.492C358.083 112.997 359.372 111.707 359.372 110.117C359.372 108.526 358.083 107.237 356.492 107.237Z" fill="#E6E6E6"/>
<path d="M373.492 107.237H368.246C366.655 107.237 365.366 108.526 365.366 110.117C365.366 111.707 366.655 112.997 368.246 112.997H373.492C375.083 112.997 376.372 111.707 376.372 110.117C376.372 108.526 375.083 107.237 373.492 107.237Z" fill="#E6E6E6"/>
<path d="M340.172 107.717H307.566C305.976 107.717 304.686 109.006 304.686 110.597C304.686 112.188 305.976 113.477 307.566 113.477H340.172C341.762 113.477 343.052 112.188 343.052 110.597C343.052 109.006 341.762 107.717 340.172 107.717Z" fill="#E6E6E6"/>
<path d="M273.912 332.952C273.692 333.062 273.472 333.172 273.252 333.272C271.862 333.962 270.462 334.642 269.052 335.312C264.832 337.322 260.559 339.232 256.232 341.042C244.848 345.804 233.166 349.822 221.262 353.072C219.262 340.602 217.322 311.192 215.462 289.562C215.112 285.492 214.762 281.702 214.412 278.352C214.08 273.954 213.448 269.584 212.522 265.272C212.431 264.934 212.3 264.609 212.132 264.302C212.322 266.032 212.522 271.192 212.712 278.352C212.812 281.702 212.902 285.492 213.002 289.562C213.472 310.382 213.962 338.712 214.452 354.842C213.062 355.182 211.662 355.522 210.262 355.842C209.382 356.052 208.492 356.252 207.602 356.442C206.522 356.682 205.442 356.922 204.362 357.142C203.232 357.382 202.102 357.612 200.972 357.832C182.506 361.46 163.731 363.282 144.912 363.272C143.662 363.272 142.422 363.262 141.172 363.252C140.792 363.252 140.412 363.242 140.022 363.232C138.922 363.212 137.782 363.192 136.622 363.162C114.383 362.547 92.2894 359.363 70.7819 353.672L71.6519 289.562L71.8019 278.352L71.8619 274.102C71.3666 275.469 71.0702 276.901 70.9819 278.352C70.6319 281.082 70.2719 284.952 69.9119 289.562C68.5419 307.322 67.1319 335.972 65.6719 352.272C48.3819 347.352 35.7419 342.862 19.9419 334.962C19.3319 334.662 18.7119 334.352 18.1019 334.042C18.2119 333.272 18.3319 332.502 18.4419 331.712C20.2319 319.272 18.1219 303.082 20.1019 289.562C21.6119 279.132 23.1719 269.112 24.7419 260.612C26.6419 250.382 28.5719 242.342 30.4819 238.432C32.6819 233.922 34.8819 229.482 37.0119 225.232C37.932 223.402 38.8353 221.605 39.7219 219.842C40.2019 218.892 40.6819 217.952 41.1519 217.032C43.2919 212.842 45.3119 208.972 47.1619 205.542C48.4619 203.132 49.6619 200.952 50.7619 199.042C52.0519 196.792 53.1919 194.932 54.1319 193.522C61.075 182.998 71.4056 175.161 83.4119 171.312L83.7119 171.232L84.0019 171.352L84.3319 171.502L103.392 164.532L111.902 144.042L155.612 141.352L162.672 146.722L166.282 149.472L170.132 152.402L177.212 157.792L179.222 158.412L182.212 159.332L202.662 165.612L202.872 165.522L203.172 165.602C214.097 169.099 223.661 175.916 230.532 185.102C231.212 185.982 231.842 186.892 232.452 187.812C234.112 190.272 236.352 194.162 238.992 199.042C240.082 201.052 241.232 203.232 242.442 205.542C243.172 206.932 249.472 226.592 255.602 246.672C261.332 265.472 266.912 284.642 267.642 289.562C267.772 290.472 267.912 291.392 268.042 292.302C268.872 297.992 269.692 303.722 270.482 309.312C271.652 317.602 272.792 325.602 273.882 332.752C273.892 332.822 273.902 332.882 273.912 332.952Z" fill="#3F3D56"/>
<path opacity="0.2" d="M227.59 260.566L219.093 227.774L211.59 256.07L227.59 260.566Z" fill="black"/>
<path d="M535.829 260.186C536.27 261.469 537.106 262.579 538.217 263.357C539.327 264.135 540.656 264.541 542.012 264.517L568.504 263.835C569.87 263.808 571.191 263.34 572.269 262.501C573.347 261.662 574.124 260.496 574.485 259.178L578.234 219.091C579.564 219.693 581.012 219.991 582.472 219.962C585.033 219.897 587.464 218.818 589.23 216.961C590.996 215.105 591.952 212.622 591.888 210.061C591.823 207.499 590.744 205.068 588.887 203.302C587.031 201.537 584.549 200.581 581.987 200.645C581.403 200.643 580.821 200.704 580.251 200.826C579.63 200.154 578.876 199.62 578.036 199.258C577.197 198.896 576.291 198.713 575.377 198.723L534.626 199.775C534.288 199.787 533.952 199.829 533.621 199.9C532.727 200.066 531.88 200.422 531.135 200.944C530.391 201.466 529.767 202.141 529.305 202.924C528.843 203.707 528.555 204.58 528.459 205.484C528.362 206.388 528.461 207.302 528.748 208.164L535.829 260.186ZM579.003 216.369L581.67 206.816C581.974 205.713 581.981 204.549 581.691 203.442C581.82 203.441 581.934 203.38 582.064 203.38C583.893 203.342 585.662 204.031 586.984 205.296C588.306 206.56 589.072 208.298 589.115 210.127C589.158 211.956 588.474 213.727 587.213 215.053C585.952 216.378 584.216 217.149 582.387 217.197C581.205 217.234 580.035 216.948 579.003 216.369Z" fill="#2F2E41"/>
<path d="M533.621 199.9C534.489 204.864 544.25 208.353 555.987 207.747C566.78 207.25 575.604 203.46 577.221 198.968C576.623 198.791 576.001 198.708 575.377 198.723L534.626 199.775C534.288 199.787 533.952 199.829 533.621 199.9Z" fill="#3F3D56"/>
<path d="M558.138 238.158C558.192 238.144 558.243 238.122 558.289 238.091L564.042 234.325C564.112 234.28 564.169 234.218 564.208 234.145C564.248 234.072 564.269 233.99 564.269 233.907C564.269 233.824 564.248 233.743 564.208 233.67C564.169 233.597 564.112 233.535 564.042 233.489L558.063 229.573C558.008 229.536 557.946 229.511 557.882 229.499C557.817 229.486 557.75 229.487 557.686 229.5C557.622 229.513 557.56 229.539 557.506 229.576C557.452 229.613 557.405 229.66 557.369 229.715C557.333 229.77 557.308 229.832 557.296 229.897C557.284 229.961 557.284 230.028 557.298 230.092C557.311 230.157 557.337 230.218 557.375 230.272C557.412 230.326 557.459 230.373 557.515 230.408L562.856 233.907L557.742 237.255C557.643 237.319 557.57 237.417 557.536 237.53C557.502 237.644 557.51 237.765 557.557 237.874C557.605 237.982 557.689 238.07 557.796 238.122C557.902 238.174 558.023 238.187 558.138 238.158Z" fill="#99C1F1"/>
<path d="M549.051 238.577C549.148 238.552 549.235 238.499 549.301 238.425C549.368 238.351 549.41 238.259 549.424 238.16C549.437 238.061 549.421 237.961 549.377 237.871C549.333 237.782 549.264 237.708 549.177 237.658L543.874 234.618L549 230.811C549.052 230.771 549.097 230.722 549.131 230.666C549.164 230.61 549.187 230.547 549.196 230.482C549.206 230.417 549.202 230.351 549.186 230.288C549.17 230.224 549.142 230.164 549.103 230.112C549.064 230.059 549.015 230.014 548.958 229.981C548.902 229.947 548.84 229.925 548.775 229.915C548.71 229.906 548.644 229.909 548.58 229.925C548.516 229.941 548.456 229.969 548.404 230.009L542.665 234.271C542.598 234.321 542.545 234.386 542.51 234.461C542.475 234.536 542.459 234.619 542.464 234.702C542.469 234.785 542.494 234.865 542.538 234.936C542.582 235.006 542.642 235.065 542.714 235.106L548.68 238.526C548.792 238.59 548.925 238.608 549.051 238.577Z" fill="#99C1F1"/>
<path d="M557.566 241.458C557.614 241.445 557.66 241.426 557.703 241.4C557.759 241.366 557.808 241.321 557.847 241.268C557.885 241.215 557.913 241.155 557.929 241.091C557.944 241.027 557.947 240.961 557.937 240.896C557.927 240.831 557.904 240.769 557.87 240.713L549.715 227.304C549.645 227.192 549.534 227.111 549.406 227.08C549.277 227.049 549.141 227.07 549.028 227.139C548.915 227.208 548.834 227.319 548.803 227.447C548.771 227.576 548.792 227.712 548.86 227.825L557.016 241.233C557.071 241.324 557.155 241.395 557.254 241.436C557.353 241.476 557.462 241.484 557.566 241.458Z" fill="#99C1F1"/>
<path d="M133.508 130.487C164.4 130.487 189.443 105.444 189.443 74.5517C189.443 43.6596 164.4 18.6167 133.508 18.6167C102.616 18.6167 77.5726 43.6596 77.5726 74.5517C77.5726 105.444 102.616 130.487 133.508 130.487Z" fill="#FFB6B6"/>
<path d="M78.2443 36.006C82.7922 29.8762 89.329 25.5181 94.329 19.7511C97.0725 16.5868 99.3504 13.0016 102.435 10.1689C108.165 4.90567 116.179 2.74907 123.955 2.48087C132.477 2.26193 140.931 4.05238 148.632 7.70734C156.334 11.3623 163.067 16.7791 168.286 23.5193C172.351 21.1362 176.415 18.7531 180.48 16.3701C182.086 20.5965 183.691 24.823 185.297 29.0496C186.615 27.9041 188.296 27.2622 190.042 27.2377C191.788 27.2132 193.486 27.8076 194.835 28.9156C196.185 30.0237 197.099 31.5737 197.414 33.291C197.73 35.0083 197.428 36.7819 196.561 38.2976C197.528 35.3086 201.96 34.6744 204.403 36.649C206.847 38.6238 207.501 42.137 207.102 45.2532C206.602 48.6718 205.091 51.8627 202.762 54.4156C200.434 56.9686 197.396 58.7668 194.038 59.5792C188.733 60.7608 182.56 59.5195 178.315 62.9117C174.911 65.6312 173.884 70.5833 170.411 73.2129C166.131 76.4532 160.081 74.9547 154.761 75.6707C145.453 76.9237 138.083 86.4437 139.201 95.769C138.359 92.8265 137.474 89.7989 135.563 87.4086C133.651 85.0184 130.432 83.4019 127.5 84.2807C122.654 85.7332 121.862 92.3384 123.036 97.2589C126.151 110.309 137.955 131.403 137.955 131.403C122.628 137.449 104.367 131.732 92.5403 120.259C80.714 108.786 74.5547 92.5401 71.8716 76.283C69.5964 62.4971 69.9188 47.2274 78.2443 36.006Z" fill="#2F2E41"/>
<path d="M289.982 312.309L277.142 290.893L319.834 258.505L337.584 239.764C339.89 237.33 342.794 235.543 346.007 234.582C349.22 233.622 352.629 233.521 355.893 234.291C359.157 235.061 362.162 236.673 364.607 238.968C367.053 241.263 368.853 244.159 369.828 247.368C371.274 252.123 370.815 257.253 368.55 261.676C366.284 266.099 362.389 269.469 357.686 271.074L330.104 280.491L289.982 312.309Z" fill="#FFB6B6"/>
<path d="M299.262 311.602L279.272 328.262L273.882 332.752L273.252 333.272C271.862 333.962 270.462 334.642 269.052 335.312C264.832 337.322 260.559 339.232 256.232 341.042C244.848 345.804 233.166 349.822 221.262 353.072C219.002 353.692 216.732 354.282 214.452 354.842C213.062 355.182 211.662 355.522 210.262 355.842C209.382 356.052 208.492 356.252 207.602 356.442C206.522 356.682 205.442 356.922 204.362 357.142C203.232 357.382 202.102 357.612 200.972 357.832C197.931 354.939 195.511 351.458 193.857 347.6C192.203 343.743 191.351 339.589 191.352 335.392C191.352 335.122 191.352 334.842 191.362 334.562L194.572 252.232L195.992 215.742C196.211 207.49 199.648 199.651 205.57 193.9C211.491 188.148 219.427 184.941 227.682 184.962C228.642 184.962 229.592 185.012 230.532 185.102C231.212 185.982 231.842 186.892 232.452 187.812C234.112 190.272 236.352 194.162 238.992 199.042C240.082 201.052 241.232 203.232 242.442 205.542C243.172 206.932 249.472 226.592 255.602 246.672L252.902 267.642L248.022 305.442L268.042 292.302L282.142 283.042L283.812 285.832L288.162 293.092L296.562 307.092L299.262 311.602Z" fill="#3F3D56"/>
<path d="M288.302 288.072C288.292 289.772 288.252 291.442 288.162 293.092C287.954 297.644 287.426 302.175 286.582 306.652C285.202 314.171 282.739 321.45 279.272 328.262C278.812 329.172 278.322 330.072 277.822 330.952C276.532 331.632 275.222 332.292 273.912 332.952C273.692 333.062 273.472 333.172 273.252 333.272C267.682 336.042 262.009 338.632 256.232 341.042C244.848 345.804 233.166 349.822 221.262 353.072C219.002 353.692 216.732 354.282 214.452 354.842C210.002 355.942 205.509 356.939 200.972 357.832C182.506 361.46 163.731 363.282 144.912 363.272C143.662 363.272 142.422 363.262 141.172 363.252C140.792 363.252 140.412 363.242 140.022 363.232C138.922 363.212 137.782 363.192 136.622 363.162C114.383 362.547 92.2895 359.363 70.782 353.672C69.072 353.222 67.3686 352.756 65.672 352.272C49.3223 347.622 33.4194 341.525 18.152 334.052C1.37196 299.522 4.52196 281.082 1.48196 239.202C7.72196 223.612 113.292 234.622 194.572 252.232C216.632 257.012 236.892 262.282 252.902 267.642C269.442 273.172 281.432 278.792 286.132 284.072C287.23 285.165 287.985 286.556 288.302 288.072Z" fill="#2F2E41"/>
<path opacity="0.2" d="M1.48785 246.372C1.33258 243.779 1.159 241.101 0.956543 238.312C11.0965 212.992 283.187 257.822 287.777 287.182C287.764 289.874 287.649 292.486 287.455 295.037C276.34 266.059 17.8505 223.451 1.48785 246.372Z" fill="black"/>
</svg>
