<svg width="788" height="730" viewBox="0 0 788 730" fill="none" xmlns="http://www.w3.org/2000/svg">
<g clip-path="url(#clip0_1_3)">
<path d="M762.661 589.787C762.661 635.026 735.766 650.824 702.593 650.824C701.821 650.824 701.052 650.815 700.288 650.794C698.752 650.761 697.228 650.694 695.725 650.586C665.783 648.469 642.521 631.857 642.521 589.787C642.521 546.252 698.147 491.315 702.342 487.236L702.351 487.232C702.509 487.073 702.593 486.994 702.593 486.994C702.593 486.994 762.661 544.544 762.661 589.787Z" fill="#3F3D56"/>
<path d="M700.401 643.902L722.373 613.204L700.347 647.271L700.288 650.794C698.752 650.761 697.228 650.694 695.725 650.586L698.092 605.326L698.076 604.975L698.118 604.909L698.339 600.633L676.258 566.479L698.406 597.427L698.46 598.333L700.251 564.137L681.347 528.847L700.48 558.129L702.342 487.236L702.351 486.994V487.232L702.042 543.137L720.858 520.973L701.963 547.951L701.466 578.569L719.038 549.187L701.391 583.078L701.115 600.099L726.624 559.198L701.019 606.04L700.401 643.902Z" fill="#F2F2F2"/>
<path d="M138.585 638.419C138.585 665.526 122.47 674.992 102.592 674.992C102.129 674.992 101.669 674.987 101.211 674.974C100.291 674.954 99.3776 674.914 98.4771 674.849C80.5359 673.581 66.5971 663.627 66.5971 638.419C66.5971 612.333 99.9279 579.415 102.442 576.971L102.447 576.968C102.542 576.873 102.592 576.826 102.592 576.826C102.592 576.826 138.585 611.31 138.585 638.419Z" fill="#3F3D56"/>
<path d="M101.279 670.844L114.445 652.45L101.246 672.863L101.211 674.974C100.291 674.954 99.3776 674.914 98.4771 674.849L99.8955 647.73L99.8855 647.52L99.9105 647.48L100.043 644.918L86.8123 624.453L100.083 642.997L100.116 643.54L101.189 623.049L89.8617 601.904L101.326 619.45L102.442 576.971L102.447 576.826V576.968L102.262 610.467L113.536 597.186L102.214 613.351L101.917 631.697L112.446 614.091L101.872 634.399L101.707 644.598L116.991 620.09L101.649 648.158L101.279 670.844Z" fill="#F2F2F2"/>
<path d="M421.018 199.617H136.928V470.295H421.018V199.617Z" fill="url(#paint0_linear_1_3)"/>
<path d="M414.922 205.713H143.024V464.199H414.922V205.713Z" fill="white"/>
<path d="M405.168 215.467H152.779V454.445H405.168V215.467Z" fill="#99C1F1"/>
<g opacity="0.5">
<path d="M378.344 0H5.24664V163.039H378.344V0Z" fill="url(#paint1_linear_1_3)"/>
</g>
<path d="M373.467 2.09485H10.1237V158.162H373.467V2.09485Z" fill="white"/>
<path d="M363.027 11.849H20.5638V148.407H363.027V11.849Z" fill="#99C1F1"/>
<path d="M304.575 56.7023L314.834 56.7588C314.834 56.7588 295.76 82.6041 294.203 84.7104C293.558 85.4179 292.999 86.2 292.539 87.04C291.696 89.4283 291.029 91.875 290.542 94.3605L281.156 94.4075C281.156 94.4075 282.617 89.166 282.556 86.3743C282.504 83.9355 281.258 81.4997 280.56 79.0537C279.854 76.5776 278.896 71.7327 278.896 71.7327H288.546L289.877 77.0571L304.575 56.7023Z" fill="white"/>
<path d="M285.149 62.153C287.042 63.2943 288.204 69.5904 288.204 69.5904C288.204 69.5904 278.297 69.7365 272.907 69.7365H268.248L262.591 94.3605H253.939C253.939 94.3605 259.323 67.6004 260.595 62.7488C261.006 61.1779 263.416 61.4475 267.486 61.4475H273.985C278.181 61.4475 283.086 60.9116 285.149 62.153ZM244.872 74.1455C244.975 72.9365 244.651 71.7295 243.957 70.7345C242.945 69.1742 242.01 68.8111 239.348 68.7278C231.831 68.4917 231.977 74.0622 231.977 74.0622L244.872 74.1455ZM253.024 67.7661C254.126 71.7398 252.026 81.0767 252.026 81.0767C252.026 81.0767 241.061 80.8937 235.055 81.0767C233.188 81.1337 230.953 80.8736 230.397 81.7424C229.615 82.9599 230.683 84.834 231.588 85.6256C232.629 86.5371 234.659 86.641 235.388 86.7334C240.263 87.3527 250.465 86.8934 250.465 86.8934L248.698 94.7192C248.698 94.7192 234.28 95.4424 227.069 93.7211C225.682 93.4235 224.41 92.7301 223.409 91.7249C223.162 91.4591 222.949 91.0966 222.716 90.7833C222.328 90.2483 222.002 89.671 221.745 89.0625C220.098 84.6735 221.938 76.2653 223.741 71.7595C223.951 71.2375 224.214 70.5751 224.49 70.0124C224.836 69.3107 225.129 68.5186 225.405 68.099C225.591 67.8097 225.821 67.6234 226.014 67.3504C226.239 67.0332 226.48 66.7278 226.736 66.4357C227.436 65.6852 228.217 65.0156 229.066 64.4395C232.07 62.1895 237.507 60.4427 244.04 61.1113C246.499 61.3642 250.213 62.2426 252.026 64.7718C252.499 65.7178 252.835 66.7256 253.024 67.7661ZM213.343 61.4169L221.732 61.3675C221.732 61.3675 217.056 83.5456 214.674 94.3605H205.023C198.279 94.3605 192.272 95.1958 189.717 90.3672C187.238 85.6789 189.604 77.9689 190.715 72.7308C191.5 69.0238 193.155 61.4471 193.155 61.4471L201.846 61.3676C201.846 61.3676 199.39 73.1638 198.368 79.0537C198.002 81.1634 197.248 83.1501 198.036 84.71C198.784 86.1947 199.833 86.301 203.027 86.3743C204.039 86.3983 207.353 86.3743 207.353 86.3743L213.343 61.4169ZM174.077 77.3894C174.956 74.2687 176.237 70.8845 176.074 68.0722C175.939 66.7407 175.473 65.4642 174.717 64.3597C173.961 63.2552 172.94 62.358 171.748 61.7502C169.801 61.1031 167.712 61.0093 165.714 61.4793C163.717 61.9493 161.889 62.9646 160.434 64.4121C158.075 66.9677 157.276 69.9529 156.441 74.0627C155.819 77.1135 155.31 80.3344 156.441 82.7137C158.444 86.9202 164.69 86.0016 171.415 86.0418C172.413 83.3665 173.239 80.3617 174.077 77.3894ZM185.724 65.0779C186.682 72.0454 183.005 79.7362 180.473 86.4241C183.055 86.6573 185.318 86.3882 185.481 86.5807C185.651 86.8302 183.75 94.5636 183.088 94.5837C181.038 94.6368 174.247 94.6934 171.415 94.6934C162.174 94.6934 153.529 95.2954 149.121 90.7005C147.343 88.623 146.189 86.0849 145.793 83.3795C145.427 79.579 145.766 75.7437 146.791 72.066C147.503 69.0444 148.623 66.1335 150.119 63.4136C154.002 56.6357 160.757 51.6044 172.08 52.7659C174.643 53.0874 177.124 53.8769 179.401 55.0949C179.537 55.1749 180.014 55.5542 180.123 55.6208C182.786 57.3148 185.211 61.3575 185.724 65.0779ZM144.838 61.4571C144.279 64.0027 143.72 66.8883 143.131 69.4037H133.814C134.535 66.6153 135.088 63.8432 135.81 61.4174C138.792 61.4174 141.563 61.4571 144.838 61.4571ZM133.481 71.7332H142.465C141.291 78.2352 138.965 88.7235 137.141 96.0244C136 100.593 135.238 103.927 132.15 106.34C131.873 106.556 131.714 106.453 131.484 106.673C130.915 107.215 128.283 107.845 126.826 108.004C124.174 108.153 121.516 108.144 118.866 107.977C119.628 105.192 120.49 101.848 121.169 99.3516C128.267 100.211 128.447 93.5018 129.821 87.04C130.616 83.3062 133.025 73.2304 133.481 71.7332Z" fill="white"/>
<path d="M112.517 88.7038L112.324 89.2028C109.043 95.5918 103.23 99.5115 94.9373 99.6843C91.5061 99.731 88.1038 99.0507 84.9543 97.6881C79.8316 95.3283 75.6238 91.3541 72.9756 86.3743C69.5445 79.729 68.9258 70.4851 76.06 63.5807C76.1701 63.5807 75.1946 65.0779 75.3047 65.0779L75.1084 65.7168C69.9675 81.8119 85.8063 95.6053 101.203 94.0277C105.442 93.4926 109.403 91.6289 112.517 88.7038Z" fill="#21609B"/>
<path d="M103.199 82.0485C107.073 82.019 110.779 80.4649 113.515 77.7228C111.419 83.0438 105.349 86.4638 97.2103 85.3762C90.395 84.4643 83.9031 77.6064 83.2345 70.7346C82.7455 65.7336 84.4883 62.7488 87.3604 59.1281C86.608 60.4522 86.1114 61.9059 85.8963 63.4136C84.8053 74.2318 94.5383 81.9915 103.199 82.0485Z" fill="#21609B"/>
<path d="M113.126 68.6115C112.524 69.9928 109.057 72.601 107.526 72.9272C101.463 74.2189 97.58 71.3438 95.546 68.0722C95.1691 67.3779 94.8477 66.6548 94.5848 65.9098C93.796 63.2278 94.1585 59.1712 96.5115 57.0715C95.8455 58.9381 95.6938 60.9495 96.0724 62.8949C96.429 64.1364 96.9696 65.3175 97.6763 66.3988C98.5831 67.7866 99.8476 68.9041 101.336 69.6335C101.917 69.9911 102.534 70.2865 103.176 70.5148C104.704 70.9645 107.928 72.1489 113.126 68.6115Z" fill="#21609B"/>
<path d="M670.969 0.87558H456.377V215.467H670.969V0.87558Z" fill="url(#paint2_linear_1_3)"/>
<path d="M664.873 6.97195H462.474V209.371H664.873V6.97195Z" fill="white"/>
<path d="M655.118 16.7261H472.228V199.617H655.118V16.7261Z" fill="#99C1F1"/>
<path d="M497.72 69.5233L563.774 45.9886L631.606 69.1048L620.623 156.497L563.774 187.981L507.814 156.915L497.72 69.5233Z" fill="#E23237"/>
<path d="M631.606 69.1048L563.774 45.9886V187.981L620.623 156.549L631.606 69.1048Z" fill="#B52E31"/>
<path d="M563.878 62.5676L522.719 154.143L538.095 153.882L546.358 133.223H583.281L592.329 154.143L607.025 154.405L563.878 62.5676ZM563.983 91.9075L577.895 120.985H551.745L563.983 91.9075Z" fill="white"/>
<path d="M781.923 255.703H497.832V470.295H781.923V255.703Z" fill="url(#paint3_linear_1_3)"/>
<path d="M775.826 261.8H503.929V464.199H775.826V261.8Z" fill="white"/>
<path d="M766.072 271.554H513.683V454.445H766.072V271.554Z" fill="#99C1F1"/>
<path d="M563.782 362.589C563.746 374.159 575.01 384.996 592.802 391.14C589.188 409.035 592.062 423.477 601.796 429.131C611.8 434.943 626.745 430.989 640.956 418.645C654.734 430.577 668.681 435.3 678.441 429.691C688.473 423.926 691.567 408.524 687.97 390.047C706.542 383.973 716.948 374.796 716.985 363.073C717.021 351.772 705.733 341.959 688.181 335.854C692.176 316.638 688.887 302.546 678.75 296.658C668.978 290.981 654.838 295.857 640.781 308.012C626.238 295.018 612.266 291.02 602.103 296.86C592.304 302.491 589.467 317.178 592.978 335.426C575.748 341.372 563.818 351.333 563.782 362.589Z" fill="white"/>
<path d="M684.44 341.849C682.994 341.348 681.535 340.883 680.065 340.455C680.312 339.465 680.541 338.47 680.751 337.47C684.117 321.387 681.991 308.415 674.601 304.123C667.517 300.007 655.895 304.239 644.139 314.404C642.981 315.408 641.848 316.44 640.742 317.502C640.005 316.792 639.256 316.095 638.494 315.413C626.242 304.464 613.941 299.829 606.532 304.086C599.428 308.168 597.29 320.351 600.226 335.612C600.518 337.124 600.849 338.627 601.218 340.122C599.473 340.611 597.789 341.134 596.177 341.69C581.757 346.666 572.532 354.508 572.506 362.672C572.48 371.104 582.328 379.593 597.316 384.769C598.531 385.186 599.757 385.573 600.992 385.93C600.585 387.538 600.224 389.156 599.907 390.784C597.014 405.763 599.199 417.67 606.259 421.772C613.55 426.007 625.823 421.716 637.794 411.319C638.74 410.497 639.689 409.627 640.641 408.711C641.832 409.867 643.055 410.989 644.309 412.078C655.841 422.065 667.248 426.119 674.327 422.051C681.639 417.85 684.05 405.073 681.02 389.509C680.789 388.321 680.521 387.107 680.216 385.87C681.078 385.618 681.922 385.358 682.748 385.088C698.363 379.97 708.537 371.647 708.564 363.102C708.59 354.909 699.119 346.954 684.44 341.849Z" fill="#53C1DE"/>
<path d="M680.938 379.565C680.193 379.809 679.429 380.045 678.65 380.273C676.766 374.372 674.483 368.606 671.815 363.015C674.416 357.515 676.646 351.848 678.491 346.05C679.881 346.458 681.231 346.887 682.531 347.34C695.108 351.713 702.768 358.146 702.752 363.084C702.736 368.343 694.419 375.145 680.938 379.565ZM675.315 390.62C676.655 397.502 676.83 403.721 675.912 408.579C675.088 412.945 673.449 415.852 671.431 417.012C667.135 419.48 657.975 416.225 648.114 407.684C646.983 406.705 645.846 405.662 644.702 404.554C648.84 400.002 652.666 395.176 656.153 390.109C662.355 389.605 668.515 388.676 674.589 387.327C674.862 388.448 675.104 389.545 675.315 390.62ZM618.722 416.416C614.528 417.883 611.192 417.914 609.179 416.745C604.894 414.257 603.141 404.695 605.615 391.886C605.909 390.372 606.245 388.868 606.623 387.372C612.663 388.69 618.786 389.596 624.949 390.084C628.506 395.156 632.393 399.989 636.583 404.551C635.736 405.365 634.869 406.158 633.983 406.93C628.69 411.528 623.389 414.784 618.722 416.416ZM599.213 379.275C592.586 376.986 587.117 374.022 583.371 370.794C580.006 367.893 578.311 365.019 578.318 362.69C578.334 357.737 585.74 351.44 598.073 347.184C599.621 346.652 601.184 346.166 602.761 345.726C604.571 351.599 606.769 357.346 609.338 362.93C606.701 368.577 604.439 374.392 602.569 380.336C601.442 380.01 600.323 379.656 599.213 379.275ZM605.934 334.514C603.418 321.438 605.147 311.585 609.428 309.125C613.989 306.505 624.042 310.294 634.621 319.747C635.297 320.351 635.976 320.984 636.656 321.638C632.466 326.144 628.579 330.924 625.021 335.944C618.912 336.473 612.845 337.396 606.856 338.709C606.513 337.318 606.206 335.92 605.934 334.514ZM664.577 349.191C663.254 346.889 661.882 344.617 660.461 342.374C664.801 342.936 668.958 343.677 672.86 344.581C671.594 348.553 670.128 352.459 668.469 356.284C667.219 353.894 665.922 351.53 664.577 349.191ZM640.717 325.804C643.538 328.898 646.2 332.133 648.694 335.495C643.337 335.225 637.977 335.207 632.613 335.441C635.267 331.963 637.985 328.734 640.717 325.804ZM616.557 349.079C615.215 351.39 613.927 353.731 612.694 356.103C611.014 352.083 609.578 348.132 608.408 344.316C612.293 343.46 616.435 342.763 620.749 342.238C619.299 344.485 617.901 346.766 616.557 349.079ZM620.742 383.826C616.532 383.356 612.349 382.67 608.209 381.771C609.423 377.895 610.916 373.868 612.657 369.773C613.88 372.154 615.159 374.504 616.493 376.825C617.853 379.192 619.27 381.526 620.742 383.826ZM640.643 400.381C637.897 397.4 635.16 394.103 632.487 390.559C635.092 390.669 637.745 390.729 640.447 390.738C643.221 390.747 645.959 390.694 648.661 390.581C646.157 393.983 643.481 397.254 640.643 400.381ZM668.482 369.74C670.198 373.654 671.711 377.653 673.013 381.724C668.82 382.652 664.581 383.361 660.314 383.847C661.759 381.572 663.159 379.268 664.513 376.937C665.889 374.568 667.212 372.169 668.482 369.74ZM659.487 374.017C657.415 377.591 655.228 381.095 652.926 384.528C648.889 384.804 644.717 384.939 640.466 384.926C636.232 384.913 632.114 384.768 628.148 384.498C625.81 381.06 623.605 377.537 621.532 373.929C619.47 370.343 617.547 366.683 615.762 362.948C617.565 359.227 619.505 355.576 621.584 351.998V351.999C623.661 348.423 625.871 344.929 628.214 341.518C632.262 341.224 636.411 341.077 640.605 341.091C644.817 341.104 648.971 341.278 653.015 341.6C655.312 345.018 657.486 348.514 659.538 352.087C661.599 355.668 663.543 359.313 665.369 363.023C663.539 366.756 661.578 370.421 659.487 374.017ZM671.682 309.149C676.23 311.791 677.969 322.393 675.062 336.279C674.872 337.184 674.665 338.085 674.442 338.982C668.452 337.605 662.378 336.626 656.259 336.051C652.768 331.002 648.941 326.194 644.803 321.661C645.826 320.681 646.871 319.728 647.941 318.801C658.014 310.09 667.413 306.669 671.682 309.149Z" fill="white"/>
<path d="M640.574 350.738C642.977 350.745 645.323 351.465 647.317 352.806C649.311 354.148 650.862 356.05 651.775 358.273C652.688 360.496 652.921 362.94 652.444 365.295C651.968 367.65 650.804 369.812 649.099 371.506C647.395 373.199 645.226 374.35 642.868 374.811C640.51 375.272 638.068 375.024 635.85 374.097C633.633 373.171 631.741 371.607 630.412 369.605C629.083 367.603 628.378 365.252 628.386 362.849C628.391 361.253 628.71 359.674 629.325 358.202C629.941 356.73 630.84 355.394 631.971 354.269C633.103 353.144 634.445 352.254 635.921 351.648C637.397 351.042 638.978 350.733 640.574 350.738Z" fill="#53C1DE"/>
<g opacity="0.7">
<g opacity="0.1">
<path d="M602.37 565.043V583.59V589.773V672.203V678.386V695.902H577.64H569.397V678.386V672.203V589.773V583.59V565.043H577.64H602.37Z" fill="url(#paint4_linear_1_3)"/>
</g>
<g opacity="0.1">
<path d="M567.337 565.043V583.59V589.773V672.203V678.386V695.902H542.607H534.364V678.386V672.203V589.773V583.59V565.043H542.607H567.337Z" fill="url(#paint5_linear_1_3)"/>
</g>
</g>
<path d="M128.702 660.516H70.6611C62.7649 660.516 56.3638 666.917 56.3638 674.814V683.085C56.3638 690.981 62.7649 697.382 70.6611 697.382H128.702C136.598 697.382 142.999 690.981 142.999 683.085V674.814C142.999 666.917 136.598 660.516 128.702 660.516Z" fill="#99C1F1"/>
<g opacity="0.7">
<g opacity="0.1">
<path d="M218.832 566.043V584.59V590.773V673.203V679.386V696.902H243.562H251.805V679.386V673.203V590.773V584.59V566.043H243.562H218.832Z" fill="url(#paint6_linear_1_3)"/>
</g>
<g opacity="0.1">
<path d="M253.866 566.043V584.59V590.773V673.203V679.386V696.902H278.595H286.838V679.386V673.203V590.773V584.59V566.043H278.595H253.866Z" fill="url(#paint7_linear_1_3)"/>
</g>
<g opacity="0.1">
<path d="M352.601 688.383L325.251 585.838L323.658 579.865L318.878 561.944L287.019 570.441L291.799 588.362L293.068 593.119L314.635 673.982L316.228 679.955L320.742 696.88L352.601 688.383Z" fill="url(#paint8_linear_1_3)"/>
</g>
</g>
<path d="M253.516 569.241H222.207V693.497H253.516V569.241Z" fill="#535461"/>
<path d="M253.516 586.853H222.207V592.723H253.516V586.853Z" fill="#99C1F1"/>
<path d="M253.516 670.994H222.207V676.865H253.516V670.994Z" fill="#99C1F1"/>
<path opacity="0.1" d="M253.516 569.241H245.689V693.497H253.516V569.241Z" fill="black"/>
<path d="M286.781 569.241H255.473V693.497H286.781V569.241Z" fill="#535461"/>
<path d="M286.781 586.853H255.473V592.723H286.781V586.853Z" fill="#99C1F1"/>
<path d="M286.781 670.994H255.473V676.865H286.781V670.994Z" fill="#99C1F1"/>
<path opacity="0.1" d="M286.781 569.241H278.954V693.497H286.781V569.241Z" fill="black"/>
<path d="M317.205 565.349L286.954 573.417L318.975 693.476L349.226 685.408L317.205 565.349Z" fill="#535461"/>
<path d="M321.743 582.365L291.492 590.434L293.005 596.106L323.256 588.037L321.743 582.365Z" fill="#99C1F1"/>
<path d="M343.427 663.665L313.176 671.733L314.689 677.405L344.94 669.337L343.427 663.665Z" fill="#99C1F1"/>
<path opacity="0.1" d="M317.205 565.349L309.642 567.366L341.663 687.425L349.226 685.408L317.205 565.349Z" fill="black"/>
<path d="M566.864 693.497H598.172V569.241H566.864V693.497Z" fill="#535461"/>
<path d="M566.864 592.723H598.172V586.853H566.864V592.723Z" fill="#99C1F1"/>
<path d="M566.864 676.865H598.172V670.994H566.864V676.865Z" fill="#99C1F1"/>
<path opacity="0.1" d="M566.864 693.497H574.691V569.241H566.864V693.497Z" fill="black"/>
<path d="M533.598 693.497H564.907V569.241H533.598V693.497Z" fill="#535461"/>
<path d="M533.598 592.723H564.907V586.853H533.598V592.723Z" fill="#99C1F1"/>
<path d="M533.598 676.865H564.907V670.994H533.598V676.865Z" fill="#99C1F1"/>
<path opacity="0.1" d="M533.598 693.497H541.425V569.241H533.598V693.497Z" fill="black"/>
<path d="M642.239 634.163H755.75C755.75 634.163 778.144 662.734 743.395 705.204H653.822C653.822 705.204 621.39 675.861 642.239 634.163Z" fill="#99C1F1"/>
<g opacity="0.1">
<path d="M755.75 634.163H642.239C641.98 634.68 641.736 635.194 641.494 635.707H751.889C751.889 635.707 773.733 663.588 740.772 705.204H743.395C778.144 662.734 755.75 634.163 755.75 634.163Z" fill="black"/>
</g>
<path d="M787.169 692.4H0V719.084H787.169V692.4Z" fill="#E0E0E0"/>
<path d="M753.815 719.084H33.3546V730H753.815V719.084Z" fill="#E0E0E0"/>
<path opacity="0.1" d="M753.815 719.084H33.3546V722.723H753.815V719.084Z" fill="black"/>
<g clip-path="url(#clip1_1_3)">
<mask id="mask0_1_3" style="mask-type:alpha" maskUnits="userSpaceOnUse" x="207" y="263" width="144" height="144">
<path d="M279 407C318.765 407 351 374.765 351 335C351 295.236 318.765 263 279 263C239.236 263 207 295.236 207 335C207 374.765 239.236 407 279 407Z" fill="black"/>
</mask>
<g mask="url(#mask0_1_3)">
<path d="M279 407C318.765 407 351 374.765 351 335C351 295.236 318.765 263 279 263C239.236 263 207 295.236 207 335C207 374.765 239.236 407 279 407Z" fill="black"/>
<path d="M326.606 389.016L262.314 306.2H250.2V363.776H259.891V318.507L318.999 394.876C321.666 393.091 324.207 391.132 326.606 389.016Z" fill="url(#paint9_linear_1_3)"/>
<path d="M308.6 306.2H299V363.8H308.6V306.2Z" fill="url(#paint10_linear_1_3)"/>
</g>
</g>
</g>
<defs>
<linearGradient id="paint0_linear_1_3" x1="278.973" y1="470.295" x2="278.973" y2="199.617" gradientUnits="userSpaceOnUse">
<stop stop-color="#808080" stop-opacity="0.25"/>
<stop offset="0.53514" stop-color="#808080" stop-opacity="0.12"/>
<stop offset="1" stop-color="#808080" stop-opacity="0.1"/>
</linearGradient>
<linearGradient id="paint1_linear_1_3" x1="191.795" y1="163.039" x2="191.795" y2="0" gradientUnits="userSpaceOnUse">
<stop stop-color="#808080" stop-opacity="0.25"/>
<stop offset="0.53514" stop-color="#808080" stop-opacity="0.12"/>
<stop offset="1" stop-color="#808080" stop-opacity="0.1"/>
</linearGradient>
<linearGradient id="paint2_linear_1_3" x1="563.673" y1="215.467" x2="563.673" y2="0.87558" gradientUnits="userSpaceOnUse">
<stop stop-color="#808080" stop-opacity="0.25"/>
<stop offset="0.53514" stop-color="#808080" stop-opacity="0.12"/>
<stop offset="1" stop-color="#808080" stop-opacity="0.1"/>
</linearGradient>
<linearGradient id="paint3_linear_1_3" x1="639.878" y1="470.295" x2="639.878" y2="255.703" gradientUnits="userSpaceOnUse">
<stop stop-color="#808080" stop-opacity="0.25"/>
<stop offset="0.53514" stop-color="#808080" stop-opacity="0.12"/>
<stop offset="1" stop-color="#808080" stop-opacity="0.1"/>
</linearGradient>
<linearGradient id="paint4_linear_1_3" x1="585.883" y1="695.902" x2="585.883" y2="565.043" gradientUnits="userSpaceOnUse">
<stop stop-color="#808080" stop-opacity="0.25"/>
<stop offset="0.53514" stop-color="#808080" stop-opacity="0.12"/>
<stop offset="1" stop-color="#808080" stop-opacity="0.1"/>
</linearGradient>
<linearGradient id="paint5_linear_1_3" x1="550.85" y1="695.902" x2="550.85" y2="565.043" gradientUnits="userSpaceOnUse">
<stop stop-color="#808080" stop-opacity="0.25"/>
<stop offset="0.53514" stop-color="#808080" stop-opacity="0.12"/>
<stop offset="1" stop-color="#808080" stop-opacity="0.1"/>
</linearGradient>
<linearGradient id="paint6_linear_1_3" x1="235.319" y1="696.902" x2="235.319" y2="566.043" gradientUnits="userSpaceOnUse">
<stop stop-color="#808080" stop-opacity="0.25"/>
<stop offset="0.53514" stop-color="#808080" stop-opacity="0.12"/>
<stop offset="1" stop-color="#808080" stop-opacity="0.1"/>
</linearGradient>
<linearGradient id="paint7_linear_1_3" x1="270.352" y1="696.902" x2="270.352" y2="566.043" gradientUnits="userSpaceOnUse">
<stop stop-color="#808080" stop-opacity="0.25"/>
<stop offset="0.53514" stop-color="#808080" stop-opacity="0.12"/>
<stop offset="1" stop-color="#808080" stop-opacity="0.1"/>
</linearGradient>
<linearGradient id="paint8_linear_1_3" x1="319.81" y1="696.88" x2="319.81" y2="561.944" gradientUnits="userSpaceOnUse">
<stop stop-color="#808080" stop-opacity="0.25"/>
<stop offset="0.53514" stop-color="#808080" stop-opacity="0.12"/>
<stop offset="1" stop-color="#808080" stop-opacity="0.1"/>
</linearGradient>
<linearGradient id="paint9_linear_1_3" x1="294.2" y1="356.2" x2="322.6" y2="391.4" gradientUnits="userSpaceOnUse">
<stop stop-color="white"/>
<stop offset="1" stop-color="white" stop-opacity="0"/>
</linearGradient>
<linearGradient id="paint10_linear_1_3" x1="303.8" y1="306.2" x2="303.639" y2="348.5" gradientUnits="userSpaceOnUse">
<stop stop-color="white"/>
<stop offset="1" stop-color="white" stop-opacity="0"/>
</linearGradient>
<clipPath id="clip0_1_3">
<rect width="787.169" height="730" fill="white"/>
</clipPath>
<clipPath id="clip1_1_3">
<rect width="144" height="144" fill="white" transform="translate(207 263)"/>
</clipPath>
</defs>
</svg>
