<svg width="673" height="670" viewBox="0 0 673 670" fill="none" xmlns="http://www.w3.org/2000/svg">
<g clip-path="url(#clip0_7_135)">
<path d="M244.301 88.9341C242.638 86.1297 235.443 89.1325 234.12 86.5873C232.802 84.0514 239.487 80.1875 243.306 71.3606C243.995 69.7688 248.335 59.7377 245.122 56.6425C239.032 50.7755 211.162 74.9871 201.409 67.0639C199.269 65.3251 197.773 61.8539 191.295 56.2181C188.718 53.9761 187.16 52.9638 185.652 53.3405C183.512 53.8748 183.342 56.7389 181.047 62.3703C177.606 70.8157 175.571 70.3058 173.565 77.0438C172.077 82.0458 172.417 84.9539 170.665 85.5205C168.187 86.3222 165.905 81.0167 162.764 81.4917C159.559 81.9766 157.621 88.1539 157.009 92.7791C155.86 101.458 159.048 107.186 160.814 113.208C162.734 119.753 163.874 129.705 159.44 143.795L115.557 267.436C125.245 242.066 153.296 172.518 165.084 146.673C168.486 139.212 172.244 131.645 179.958 128.658C187.385 125.782 197.586 127.499 210.59 124.366C212.109 124.001 216.324 122.928 216.854 120.449C217.293 118.4 214.814 117.256 215.194 115.336C215.705 112.762 220.58 112.73 226.571 109.76C230.795 107.665 233.427 105.174 235.69 103.032C236.373 102.386 246.515 92.6673 244.301 88.9341Z" fill="#F2F2F2"/>
<path d="M71.6512 154.024C69.7949 154.031 69.1927 158.429 67.5619 158.344C65.9369 158.259 65.9693 153.863 62.739 149.442C62.1565 148.644 58.4855 143.62 56.0392 144.304C51.4024 145.6 55.2444 166.265 48.5415 168.765C47.0705 169.314 44.9354 169.047 40.3002 170.6C38.4562 171.218 37.5097 171.691 37.2594 172.54C36.9043 173.744 38.261 174.654 40.3628 177.405C43.5149 181.531 42.6773 182.382 45.4059 185.311C47.4314 187.484 48.9569 188.157 48.7295 189.18C48.4079 190.628 45.1456 190.217 44.4725 191.895C43.7856 193.608 46.2583 196.342 48.3517 197.977C52.2802 201.045 56.0108 201.133 59.4763 202.003C63.2424 202.949 68.4562 205.262 74.0923 211.503L122.114 268.716C112.458 256.641 86.4167 222.806 77.133 209.564C74.453 205.741 71.8229 201.713 72.5829 197.065C73.3146 192.59 77.1004 188.079 79.3149 180.793C79.5736 179.942 80.2633 177.564 79.1998 176.588C78.3205 175.782 77.0437 176.668 76.2115 175.927C75.0953 174.934 76.4864 172.532 76.757 168.735C76.9478 166.057 76.4845 164.047 76.0861 162.318C75.966 161.797 74.1223 154.015 71.6512 154.024Z" fill="#F2F2F2"/>
<path d="M108.684 162.337L107.566 152.353L108.077 151.597C110.441 148.097 111.646 144.679 111.661 141.435C111.663 140.919 111.639 140.403 111.615 139.877C111.519 137.795 111.398 135.206 112.748 132.189C113.505 130.506 115.631 126.611 118.827 127.093C119.687 127.214 120.338 127.609 120.832 128.072C120.904 127.956 120.979 127.84 121.059 127.715C122.054 126.196 122.842 125.546 123.602 124.919C124.185 124.437 124.788 123.94 125.732 122.764C126.147 122.248 126.47 121.795 126.742 121.414C127.569 120.262 128.649 118.888 130.553 118.912C132.587 119.009 133.653 120.691 134.359 121.805C135.62 123.791 136.191 125.223 136.569 126.172C136.707 126.519 136.863 126.91 136.943 127.03C137.598 127.994 142.928 127.093 144.936 126.765C149.445 126.013 153.348 125.362 154.955 128.207C156.108 130.241 155.252 132.931 152.335 136.416C151.427 137.501 150.46 138.325 149.602 138.971C150.313 139.395 150.949 140.046 151.207 141.068C151.815 143.488 149.735 145.913 145.027 148.285C143.858 148.878 142.284 149.668 140.079 150.049C139.04 150.228 138.105 150.271 137.304 150.295C137.288 150.758 137.179 151.259 136.897 151.775C136.07 153.293 134.349 154.017 131.756 153.843C128.902 153.694 126.552 153.149 124.479 152.672C122.669 152.257 121.109 151.905 119.885 151.987C117.614 152.17 115.864 153.988 113.811 156.345L108.684 162.337Z" fill="#F2F2F2"/>
<path d="M113.872 102.894L104.499 106.509L103.637 106.206C99.6518 104.807 96.04 104.508 92.8981 105.317C92.3986 105.445 91.9057 105.6 91.4036 105.756C89.4136 106.378 86.9401 107.151 83.6787 106.611C81.8593 106.305 77.5524 105.237 77.208 102.023C77.1063 101.16 77.3236 100.43 77.6459 99.835C77.5157 99.7944 77.3848 99.7515 77.2434 99.7063C75.522 99.1286 74.6926 98.5313 73.8938 97.9558C73.2795 97.5138 72.6464 97.0569 71.269 96.4413C70.6649 96.1711 70.1446 95.9736 69.7072 95.8068C68.383 95.2993 66.7801 94.6032 66.3205 92.7552C65.8978 90.763 67.2549 89.3057 68.1529 88.3401C69.7544 86.6169 70.9944 85.7012 71.817 85.0943C72.1179 84.8733 72.4558 84.6227 72.5523 84.5152C73.3186 83.6365 71.0948 78.7102 70.2685 76.8512C68.3971 72.6797 66.7778 69.0701 69.1212 66.7935C70.7968 65.163 73.6158 65.3084 77.727 67.2455C79.0066 67.8494 80.0492 68.5752 80.8917 69.2414C81.1217 68.446 81.5897 67.6654 82.5129 67.1567C84.6997 65.9554 87.5728 67.3524 91.0611 71.3042C91.9311 72.2846 93.0952 73.6065 94.0229 75.6432C94.4589 76.6029 94.7381 77.4965 94.9645 78.2645C95.4164 78.1634 95.9288 78.1412 96.4993 78.2831C98.1779 78.6977 99.3139 80.1789 99.8038 82.7317C100.383 85.5301 100.452 87.9415 100.517 90.0676C100.575 91.9238 100.63 93.5215 101.02 94.6851C101.773 96.8349 103.975 98.0666 106.776 99.4551L113.872 102.894Z" fill="#F2F2F2"/>
<path d="M108.684 73.4822L107.566 63.4986L108.077 62.7417C110.441 59.2419 111.646 55.824 111.661 52.5797C111.663 52.0639 111.639 51.548 111.615 51.0226C111.519 48.9401 111.398 46.3514 112.748 43.3337C113.505 41.6513 115.631 37.7561 118.827 38.2382C119.687 38.3587 120.338 38.754 120.832 39.2167C120.904 39.1011 120.979 38.9854 121.059 38.86C122.054 37.3415 122.842 36.6907 123.602 36.064C124.185 35.582 124.788 35.0855 125.732 33.9092C126.147 33.3934 126.47 32.9402 126.742 32.5594C127.569 31.4073 128.649 30.0333 130.553 30.0574C132.587 30.1539 133.653 31.8363 134.359 32.9499C135.62 34.936 136.191 36.3677 136.569 37.3174C136.707 37.6645 136.863 38.0549 136.943 38.1755C137.598 39.1396 142.928 38.2381 144.936 37.9103C149.445 37.1583 153.348 36.5075 154.955 39.3517C156.108 41.386 155.252 44.0759 152.335 47.5613C151.427 48.646 150.46 49.4703 149.602 50.1163C150.313 50.5406 150.949 51.1913 151.207 52.2133C151.815 54.6333 149.735 57.0581 145.027 59.4299C143.858 60.0228 142.284 60.8135 140.079 61.1943C139.04 61.3727 138.105 61.4161 137.304 61.4402C137.288 61.903 137.179 62.4043 136.897 62.9201C136.07 64.4386 134.349 65.1617 131.756 64.9882C128.902 64.8387 126.552 64.294 124.479 63.8168C122.669 63.4022 121.109 63.0503 119.885 63.1322C117.614 63.3154 115.864 65.1328 113.811 67.4901L108.684 73.4822Z" fill="#F2F2F2"/>
<path d="M118.899 267.274L116.807 265.963L114.368 266.242C114.329 266.016 114.196 265.495 113.996 264.68C112.905 260.216 109.576 246.632 106.799 225.237C104.861 210.303 103.765 194.949 103.538 179.595C103.311 164.217 104.039 152.575 104.623 143.218C105.064 136.161 105.599 129.441 106.124 122.894C107.522 105.405 108.841 88.8843 107.86 70.5946C107.643 66.5115 107.187 58.0126 102.222 48.969C99.3415 43.7241 95.3741 39.0673 90.4281 35.1337L93.5037 31.2675C98.9631 35.6157 103.352 40.7739 106.551 46.5973C112.056 56.6243 112.553 65.8849 112.791 70.3344C113.789 88.947 112.456 105.627 111.044 123.285C110.523 129.807 109.988 136.498 109.549 143.527C108.971 152.797 108.25 164.338 108.474 179.518C108.696 194.689 109.781 209.855 111.692 224.601C114.435 245.725 117.716 259.108 118.793 263.504C119.367 265.852 119.487 266.343 118.899 267.274Z" fill="#F2F2F2"/>
<path d="M81.3749 42.977C81.1724 42.977 80.9675 42.9722 80.7602 42.9577C76.5566 42.7311 72.6639 40.2147 69.1882 35.4808C67.5588 33.2536 66.7248 30.7132 65.0617 25.6466C64.8038 24.8656 63.5504 20.9031 62.7887 15.4509C62.2897 11.8883 62.3524 10.3988 63.0587 9.08274C63.8421 7.61724 65.1099 6.59527 66.5368 5.90593C66.4742 5.43348 66.5247 4.9466 66.7296 4.45005C67.5708 2.39163 69.8076 2.66161 71.0176 2.79176C71.6298 2.86889 72.3939 2.97012 73.2183 2.92672C74.515 2.86408 75.2117 2.47838 76.2674 1.89988C77.2773 1.34549 78.5331 0.656153 80.3963 0.275313C84.0697 -0.491167 87.1476 0.550103 88.1624 0.892343C93.5013 2.67116 96.1334 6.82179 99.18 11.628C99.7875 12.5921 101.872 16.1016 103.249 20.9126C104.242 24.3835 104.102 25.9261 103.803 27.0735C103.196 29.4308 101.762 30.7806 98.1195 33.7598C94.316 36.8787 92.407 38.4407 90.7679 39.3903C86.9524 41.5934 84.5565 42.977 81.3749 42.977Z" fill="#F2F2F2"/>
<path d="M286.706 663.479C286.706 664.139 287.236 664.669 287.896 664.669H535.186C535.846 664.669 536.376 664.139 536.376 663.479C536.376 663.159 536.256 662.879 536.056 662.669H446.336C444.426 662.669 442.556 662.539 440.716 662.289H287.896C287.236 662.289 286.706 662.819 286.706 663.479Z" fill="#3F3D56"/>
<path d="M167.23 452.944H304.899C328.222 452.944 347.129 471.851 347.129 495.174V605.607C347.129 628.93 328.222 647.837 304.899 647.837H167.23C143.907 647.837 125 628.93 125 605.607V495.174C125 471.851 143.907 452.944 167.23 452.944Z" fill="white"/>
<path d="M124 605.607V495.174C124 471.337 143.393 451.944 167.23 451.944H304.899C328.736 451.944 348.129 471.337 348.129 495.174V605.607C348.129 629.444 328.736 648.836 304.899 648.836H167.23C143.393 648.836 124 629.444 124 605.607ZM167.23 453.944C144.496 453.944 126 472.44 126 495.174V605.607C126 628.341 144.496 646.836 167.23 646.836H304.899C327.633 646.836 346.129 628.341 346.129 605.607V495.174C346.129 472.44 327.633 453.944 304.899 453.944H167.23Z" fill="#3F3D56"/>
<path d="M236 478C196.248 478 164 510.248 164 550C164 589.752 196.248 622 236 622C275.752 622 308 589.752 308 550C308 510.248 275.752 478 236 478ZM232.249 607.716V562.553H207.142L243.214 492.285V537.447H267.383L232.249 607.716Z" fill="#009688"/>
<path d="M43.23 206.944H180.899C204.222 206.944 223.129 225.851 223.129 249.174V359.607C223.129 382.93 204.222 401.837 180.899 401.837H43.23C19.9071 401.837 1.00006 382.93 1.00006 359.607V249.174C1.00006 225.851 19.9071 206.944 43.23 206.944Z" fill="white"/>
<path d="M0 359.607V249.175C0 225.338 19.3931 205.945 43.23 205.945H180.899C204.736 205.945 224.129 225.338 224.129 249.175V359.607C224.129 383.444 204.736 402.837 180.899 402.837H43.23C19.3931 402.837 0 383.444 0 359.607ZM43.23 207.945C20.4956 207.945 2 226.44 2 249.175V359.607C2 382.342 20.4956 400.837 43.23 400.837H180.899C203.633 400.837 222.129 382.342 222.129 359.607V249.175C222.129 226.44 203.633 207.945 180.899 207.945L43.23 207.945Z" fill="#3F3D56"/>
<path fill-rule="evenodd" clip-rule="evenodd" d="M123.455 237.306C122.47 237.306 121.556 237.517 120.712 237.798C122.505 238.993 123.49 240.574 123.982 242.366C124.018 242.612 124.088 242.788 124.123 243.034C124.158 243.245 124.193 243.456 124.193 243.667C124.334 246.759 123.384 247.146 122.716 248.973C121.696 251.328 121.978 253.858 123.209 255.897C123.314 256.143 123.455 256.424 123.631 256.67C122.294 247.778 129.715 246.443 131.087 243.667C131.192 241.242 129.187 239.625 127.605 238.501C126.093 237.587 124.721 237.306 123.455 237.306ZM134.639 239.309C134.498 240.117 134.603 239.906 134.568 240.328C134.533 240.609 134.533 240.961 134.498 241.242C134.428 241.523 134.357 241.804 134.252 242.085C134.182 242.366 134.076 242.648 133.971 242.929C133.83 243.21 133.724 243.456 133.584 243.737C133.478 243.878 133.408 244.018 133.302 244.159C133.232 244.264 133.162 244.37 133.091 244.475C132.915 244.721 132.74 244.967 132.564 245.178C132.353 245.389 132.177 245.635 131.931 245.811C131.931 245.846 131.931 245.846 131.931 245.846C131.72 246.021 131.509 246.232 131.263 246.408C130.524 246.97 129.68 247.392 128.906 247.919C128.66 248.095 128.414 248.235 128.203 248.446C127.957 248.622 127.746 248.798 127.535 249.009C127.288 249.219 127.113 249.43 126.902 249.676C126.726 249.887 126.515 250.133 126.374 250.379C126.198 250.625 126.022 250.871 125.882 251.117C125.741 251.398 125.635 251.644 125.495 251.925C125.389 252.207 125.284 252.453 125.213 252.734C125.108 253.05 125.038 253.331 124.967 253.612C124.932 253.753 124.932 253.929 124.897 254.069C124.862 254.21 124.862 254.35 124.827 254.491C124.827 254.772 124.791 255.088 124.791 255.369C124.791 255.58 124.791 255.791 124.827 256.002C124.827 256.283 124.862 256.564 124.932 256.881C124.967 257.162 125.038 257.443 125.108 257.724C125.214 258.005 125.284 258.286 125.389 258.567C125.46 258.743 125.565 258.919 125.636 259.059L117.547 255.932C116.175 255.545 114.839 255.194 113.467 254.877C112.728 254.702 111.99 254.526 111.251 254.35C109.141 253.929 106.996 253.612 104.851 253.401C104.78 253.401 104.745 253.366 104.675 253.366C102.565 253.155 100.49 253.05 98.3794 253.05C96.8319 253.05 95.2845 253.12 93.7722 253.226C91.6269 253.366 89.4815 253.647 87.3362 253.999C86.8087 254.069 86.2811 254.175 85.7536 254.28C84.6633 254.491 83.6083 254.737 82.5884 254.983C82.0608 255.123 81.5333 255.264 81.0057 255.405C80.4782 255.615 79.9858 255.861 79.4934 256.072C79.1066 256.248 78.7197 256.424 78.3329 256.599C78.2626 256.635 78.1921 256.635 78.157 256.67C77.8053 256.845 77.4888 256.986 77.1723 257.162C77.0668 257.197 76.9964 257.232 76.9261 257.267C76.5392 257.443 76.1524 257.654 75.8359 257.829C75.5897 257.935 75.3435 258.075 75.1325 258.181C75.027 258.251 74.8863 258.321 74.8159 258.356C74.4994 258.532 74.1829 258.708 73.9015 258.884C73.585 259.059 73.3037 259.235 73.0575 259.411C72.8113 259.586 72.5651 259.727 72.3541 259.903C72.3189 259.938 72.2838 259.938 72.2486 259.973C72.0376 260.114 71.7914 260.289 71.5804 260.465C71.5804 260.465 71.5451 260.5 71.5101 260.535C71.3342 260.676 71.1584 260.816 70.9825 260.957C70.9123 260.992 70.8418 261.062 70.7715 261.098C70.5957 261.238 70.4198 261.414 70.244 261.554C70.2088 261.625 70.1385 261.66 70.1033 261.695C69.8923 261.906 69.6812 262.082 69.4702 262.293C69.435 262.293 69.435 262.328 69.3999 262.363C69.1889 262.538 68.9779 262.749 68.7669 262.96C68.7317 262.995 68.7317 263.03 68.6966 263.03C68.5208 263.206 68.3449 263.382 68.1691 263.593C68.0988 263.663 67.9932 263.733 67.9229 263.804C67.747 264.014 67.536 264.225 67.325 264.436C67.2898 264.506 67.2195 264.542 67.1843 264.612C66.9029 264.893 66.6567 265.174 66.3754 265.455C66.3401 265.49 66.3051 265.525 66.2699 265.561C65.7072 266.158 65.1093 266.756 64.4762 267.283C63.8432 267.845 63.175 268.372 62.5068 268.829C61.8034 269.321 61.1352 269.743 60.3966 270.164C59.6932 270.551 58.9547 270.902 58.1809 271.219C57.4424 271.535 56.6687 271.816 55.8949 272.062C54.4178 272.378 52.9055 272.976 51.6043 273.081C51.3229 273.081 51.0064 273.152 50.725 273.187C50.4085 273.257 50.1272 273.327 49.8458 273.398C49.5645 273.503 49.2831 273.608 49.0018 273.714C48.7204 273.819 48.4391 273.96 48.1577 274.1C47.9115 274.276 47.6302 274.417 47.384 274.592C47.1378 274.768 46.8916 274.979 46.6806 275.19C46.4344 275.366 46.1882 275.612 45.9772 275.822C45.7662 276.068 45.5552 276.279 45.3793 276.525C45.2035 276.806 44.9925 277.052 44.8518 277.334C44.6759 277.58 44.5001 277.861 44.3594 278.142C44.2187 278.458 44.0781 278.739 43.9725 279.056C43.867 279.337 43.7615 279.653 43.656 279.969C43.5857 280.25 43.5153 280.532 43.4802 280.813C43.4802 280.848 43.445 280.883 43.445 280.918C43.3747 281.234 43.3747 281.656 43.3394 281.867C43.3042 282.113 43.2692 282.324 43.2692 282.57C43.2692 282.711 43.2692 282.886 43.3044 283.027C43.3396 283.273 43.3747 283.484 43.4451 283.694C43.5154 283.905 43.5859 284.116 43.6913 284.327C43.6913 284.362 43.6913 284.362 43.6913 284.362C43.7968 284.573 43.9375 284.784 44.0782 284.995C44.2189 285.206 44.3595 285.417 44.5354 285.627C44.7112 285.803 44.9222 286.014 45.1332 286.19C45.3443 286.401 45.5553 286.576 45.8015 286.752C46.6455 287.49 46.8565 287.736 47.9468 288.298C48.1226 288.404 48.2985 288.474 48.5095 288.579C48.5447 288.579 48.5798 288.615 48.615 288.615C48.615 288.685 48.615 288.72 48.6502 288.79C48.6855 289.071 48.7557 289.353 48.8261 289.634C48.8964 289.95 49.0019 290.231 49.1074 290.477C49.213 290.688 49.2833 290.899 49.3888 291.11C49.424 291.18 49.4591 291.25 49.4943 291.285C49.635 291.567 49.7757 291.813 49.9163 292.059C50.0922 292.305 50.268 292.551 50.4439 292.797C50.6197 293.007 50.8307 293.253 51.0417 293.464C51.2528 293.675 51.4638 293.851 51.71 294.062C51.71 294.062 51.7452 294.097 51.7803 294.097C51.9913 294.273 52.2023 294.448 52.4133 294.589C52.6595 294.765 52.9057 294.905 53.187 295.046C53.4332 295.186 53.7146 295.327 53.9959 295.432C54.2069 295.538 54.4531 295.608 54.6993 295.678C54.7345 295.714 54.7696 295.714 54.84 295.749C54.9808 295.784 55.1565 295.819 55.2972 295.854C55.1917 297.752 55.1565 299.544 55.438 300.177C55.7545 300.88 57.3019 298.736 58.8494 296.276C58.6384 298.701 58.4977 301.547 58.8494 302.391C59.2362 303.269 61.3464 300.528 63.1752 297.506C88.1102 291.742 110.865 308.962 113.256 333.281C112.799 329.486 108.122 327.377 105.976 327.904C104.921 330.505 103.127 333.844 100.244 335.917C100.49 333.598 100.384 331.208 99.8919 328.888C99.1182 332.122 97.6059 335.144 95.5309 337.745C92.1898 337.99 88.8488 336.374 87.0903 333.949C86.9496 333.844 86.9144 333.633 86.8089 333.492C86.7034 333.246 86.5979 333 86.5276 332.754C86.4221 332.508 86.3517 332.262 86.3166 332.016C86.2813 331.77 86.2813 331.524 86.2813 331.243C86.2813 331.067 86.2813 330.892 86.2813 330.716C86.3166 330.47 86.3868 330.224 86.4572 329.978C86.5275 329.732 86.5979 329.486 86.7034 329.24C86.8441 328.994 86.9495 328.748 87.1254 328.502C87.7233 326.815 87.7233 325.444 86.633 324.636C86.422 324.496 86.211 324.39 85.9648 324.285C85.8241 324.25 85.6483 324.179 85.5076 324.144C85.4021 324.109 85.3318 324.074 85.2263 324.039C84.9801 323.968 84.7339 323.898 84.4877 323.863C84.2415 323.793 83.9953 323.758 83.7492 323.758C83.503 323.722 83.2216 323.687 82.9754 323.687C82.7996 323.687 82.6237 323.722 82.4479 323.722C82.1665 323.722 81.9203 323.758 81.6742 323.828C81.428 323.863 81.1818 323.898 80.9356 323.969C80.6894 324.039 80.4432 324.109 80.197 324.215C79.9509 324.32 79.7399 324.425 79.4937 324.531C79.2827 324.636 79.0716 324.777 78.8255 324.882C70.631 330.224 75.5195 342.735 81.1115 346.355C79.0013 346.741 76.856 347.198 76.2581 347.655C76.2229 347.69 76.1878 347.725 76.1878 347.725C77.7001 348.639 79.2827 349.412 80.9357 350.08C83.1865 350.818 85.578 351.485 86.6331 351.767V351.802C89.5521 352.399 92.5064 352.61 95.4957 352.434C111.076 351.345 123.842 339.502 126.163 323.898C126.234 324.215 126.304 324.496 126.374 324.812C126.48 325.445 126.621 326.112 126.691 326.78C126.691 326.78 126.691 326.78 126.691 326.815C126.761 327.132 126.796 327.448 126.832 327.729C126.832 327.799 126.832 327.834 126.832 327.87C126.867 328.186 126.902 328.502 126.902 328.783C126.937 329.17 126.972 329.556 126.972 329.943C126.972 330.119 126.972 330.294 126.972 330.505C126.972 330.681 127.007 330.892 127.007 331.068C127.007 331.278 126.972 331.489 126.972 331.7C126.972 331.876 126.972 332.052 126.972 332.192C126.972 332.438 126.937 332.649 126.937 332.895C126.937 333.036 126.937 333.176 126.902 333.352C126.902 333.598 126.867 333.844 126.867 334.125C126.831 334.23 126.831 334.336 126.831 334.441C126.796 334.722 126.761 334.968 126.726 335.25C126.726 335.355 126.726 335.46 126.691 335.566C126.655 335.917 126.585 336.234 126.55 336.585V336.62V336.655C126.48 336.972 126.409 337.323 126.339 337.639C126.339 337.675 126.339 337.71 126.339 337.745C126.268 338.061 126.198 338.377 126.128 338.694C126.128 338.729 126.093 338.799 126.093 338.834C126.022 339.151 125.952 339.467 125.846 339.783C125.846 339.818 125.846 339.853 125.846 339.889C125.741 340.24 125.635 340.556 125.565 340.873C125.53 340.908 125.53 340.943 125.53 340.943C125.424 341.294 125.319 341.646 125.213 341.997C125.073 342.349 124.967 342.665 124.826 343.016C124.686 343.368 124.58 343.719 124.44 344.035C124.299 344.387 124.158 344.703 124.018 345.055H123.982C123.842 345.371 123.701 345.722 123.525 346.039C123.49 346.144 123.455 346.214 123.42 346.285C123.384 346.32 123.384 346.355 123.349 346.39C121.063 350.994 117.687 355.035 113.467 358.198C113.185 358.374 112.904 358.585 112.623 358.795C112.552 358.866 112.447 358.901 112.376 358.971C112.13 359.147 111.884 359.323 111.603 359.498L111.708 359.709H111.743C112.236 359.639 112.728 359.569 113.221 359.498H113.256C114.17 359.358 115.085 359.182 115.999 359.006C116.245 358.971 116.527 358.901 116.773 358.831C116.949 358.795 117.089 358.76 117.265 358.725C117.511 358.69 117.757 358.62 118.004 358.585C118.215 358.514 118.426 358.479 118.637 358.409C122.154 357.565 125.565 356.406 128.836 355.035C123.244 362.661 115.753 368.811 106.996 372.853C111.04 372.571 115.085 371.904 118.988 370.779C133.162 366.597 145.084 357.073 152.223 344.246C150.781 352.364 147.546 360.096 142.763 366.843C146.174 364.594 149.304 361.993 152.153 359.041C160.031 350.818 165.201 340.381 166.959 329.17C168.155 334.723 168.507 340.451 167.979 346.109C193.371 310.72 170.089 274.031 160.347 264.366C160.312 264.296 160.277 264.261 160.277 264.191C160.242 264.226 160.242 264.226 160.242 264.261C160.242 264.226 160.242 264.226 160.207 264.191C160.207 264.612 160.171 265.034 160.136 265.456C160.031 266.264 159.925 267.037 159.785 267.81C159.609 268.583 159.398 269.357 159.187 270.13C158.941 270.868 158.659 271.641 158.343 272.379C158.026 273.082 157.675 273.82 157.288 274.523C156.901 275.19 156.479 275.893 156.022 276.526C155.564 277.193 155.072 277.826 154.58 278.423C154.052 279.056 153.489 279.618 152.927 280.181C152.575 280.497 152.258 280.778 151.907 281.059C151.625 281.305 151.379 281.516 151.098 281.762C150.465 282.254 149.832 282.711 149.128 283.133C148.46 283.554 147.757 283.976 147.053 284.327C146.315 284.679 145.576 284.995 144.838 285.311C144.099 285.593 143.325 285.839 142.552 286.049C141.778 286.26 140.969 286.436 140.195 286.577C139.387 286.717 138.578 286.787 137.804 286.858C137.241 286.893 136.678 286.928 136.116 286.928C135.307 286.928 134.498 286.858 133.724 286.787C132.915 286.717 132.106 286.612 131.333 286.436C130.524 286.295 129.75 286.085 128.976 285.839H128.941C129.715 285.768 130.489 285.698 131.262 285.557C132.071 285.417 132.845 285.241 133.619 285.03C134.392 284.819 135.166 284.573 135.905 284.292C136.678 284.011 137.417 283.66 138.12 283.308C138.859 282.957 139.527 282.57 140.231 282.149C140.899 281.692 141.567 281.235 142.2 280.743C142.833 280.251 143.431 279.724 143.994 279.161C144.592 278.634 145.119 278.037 145.647 277.439C146.174 276.807 146.666 276.174 147.124 275.542C147.194 275.436 147.264 275.296 147.335 275.19C147.686 274.628 148.038 274.066 148.355 273.503C148.741 272.8 149.093 272.098 149.41 271.36C149.726 270.622 150.008 269.884 150.254 269.11C150.5 268.372 150.676 267.599 150.852 266.826C150.992 266.018 151.133 265.245 151.203 264.472C151.274 263.663 151.344 262.855 151.344 262.082C151.344 261.52 151.309 260.957 151.274 260.395C151.203 259.587 151.098 258.814 150.992 258.04C150.852 257.232 150.676 256.459 150.465 255.686C150.219 254.948 149.973 254.175 149.691 253.437C149.41 252.699 149.058 251.961 148.706 251.258C148.32 250.555 147.933 249.852 147.511 249.184C147.053 248.517 146.596 247.884 146.104 247.252C145.576 246.654 145.049 246.057 144.486 245.459C144.205 245.178 143.888 244.862 143.572 244.581C141.989 243.351 140.336 242.191 138.683 241.137C138.437 240.996 138.226 240.891 137.98 240.785C136.819 240.047 135.729 239.66 134.639 239.309Z" fill="#E0234E"/>
<path d="M428.43 280.491C427.43 279.491 419.43 258.491 419.43 258.491L400.43 257.491L391.737 277.987L428.43 280.491Z" fill="#FFB6B6"/>
<path d="M401.474 267.166C415.599 267.166 427.05 255.715 427.05 241.59C427.05 227.465 415.599 216.015 401.474 216.015C387.35 216.015 375.899 227.465 375.899 241.59C375.899 255.715 387.35 267.166 401.474 267.166Z" fill="#FFB6B6"/>
<path d="M449.93 418.991L458.93 448.991L434.93 622.991H418.682L409.93 491.991L399.93 536.991L450.93 601.991L437.93 616.991L364.43 545.491L365.93 434.991L371.93 417.991L449.93 418.991Z" fill="#2F2E41"/>
<path d="M422.916 262.6L420.919 262.698C420.919 262.698 419.133 246.767 418.085 245.817C417.037 244.868 415.137 246.964 415.137 246.964C415.137 246.964 406.901 242.364 406.655 237.37C406.409 232.376 406.212 228.381 403.216 228.528C400.219 228.676 383.437 233.507 379.442 233.704C375.447 233.901 369.109 227.205 375.806 220.868C382.502 214.53 388.396 212.238 389.346 211.19C390.295 210.142 396.547 205.829 402.01 209.565C407.472 213.3 414.463 212.956 414.463 212.956C414.463 212.956 427.595 215.313 425.893 221.404C424.19 227.495 430.774 239.185 428.072 245.325C425.371 251.466 422.916 262.6 422.916 262.6Z" fill="#2F2E41"/>
<path d="M417.93 619.991L435.93 621.991L437.93 654.991C437.93 654.991 436.93 670.991 419.93 668.991C402.93 666.991 407.93 650.991 407.93 650.991L417.93 619.991Z" fill="#2F2E41"/>
<path d="M441.43 596.491C441.43 596.491 454.43 590.491 456.43 597.491L460.43 611.491C460.43 611.491 460.43 625.491 461.43 626.491C462.43 627.491 481.43 653.491 464.43 667.491C464.43 667.491 455.43 668.491 450.43 654.491C445.43 640.491 430.43 626.491 430.43 626.491C430.43 626.491 427.525 619.491 432.478 619.991C437.43 620.491 444.43 608.491 442.43 604.491C440.43 600.491 441.43 596.491 441.43 596.491Z" fill="#2F2E41"/>
<path d="M276.329 465.845C271.676 463.886 270.401 456.371 273.481 449.058C274.672 446.12 276.548 443.51 278.954 441.445L282.548 433.202L282.42 433.115L292.753 391.933C295.156 382.357 301.771 374.279 310.856 370.415C316.26 368.117 321.388 367.701 322.879 373.208C325.354 382.346 309.237 411.78 299.52 428.341L291.949 446.919C292.153 450.083 291.597 453.251 290.326 456.156C287.248 463.467 280.981 467.805 276.329 465.845Z" fill="#FFB6B6"/>
<path d="M392.43 274.491L425.43 275.491L457.43 289.491L452.43 372.491C452.43 372.491 458.43 391.491 455.43 394.491C452.43 397.491 455.43 410.94 453.43 411.215C451.43 411.491 453.43 425.955 453.43 425.955C453.43 425.955 425.43 416.491 401.43 422.491C377.43 428.491 369.43 418.491 369.43 418.491C369.43 418.491 363.43 394.491 363.43 389.491V287.247L392.43 274.491Z" fill="#99C1F1"/>
<path d="M368.93 286.991C368.93 286.991 354.93 282.991 347.93 292.991C340.93 302.991 336.93 302.991 336.93 315.991C336.93 315.991 295.93 373.991 297.93 379.991L288.43 395.491L312.43 408.491C312.43 408.491 320.93 399.991 320.93 391.991C320.93 383.991 344.93 361.991 344.93 361.991C344.93 361.991 365.93 334.991 366.93 324.991C367.93 314.991 368.93 286.991 368.93 286.991Z" fill="#99C1F1"/>
<path d="M492.23 470.944H629.899C653.222 470.944 672.129 489.851 672.129 513.174V623.607C672.129 646.93 653.222 665.837 629.899 665.837H492.23C468.907 665.837 450 646.93 450 623.607V513.174C450 489.851 468.907 470.944 492.23 470.944Z" fill="white"/>
<path d="M448 622.607V512.175C448 488.338 467.393 468.945 491.23 468.945H628.899C652.736 468.945 672.129 488.338 672.129 512.175V622.607C672.129 646.444 652.736 665.837 628.899 665.837H491.23C467.393 665.837 448 646.444 448 622.607ZM491.23 470.945C468.496 470.945 450 489.44 450 512.175V622.607C450 645.342 468.496 663.837 491.23 663.837H628.899C651.633 663.837 670.129 645.342 670.129 622.607V512.175C670.129 489.44 651.633 470.945 628.899 470.945H491.23Z" fill="#3F3D56"/>
<path fill-rule="evenodd" clip-rule="evenodd" d="M630.923 525.357C630.976 525.554 631.003 525.757 631.004 525.96V557.61C631.004 558.016 630.896 558.415 630.693 558.767C630.49 559.118 630.198 559.41 629.846 559.612L603.324 574.906V605.221C603.324 606.046 602.886 606.807 602.172 607.223L546.81 639.144C546.683 639.216 546.545 639.262 546.406 639.311C546.355 639.328 546.306 639.36 546.251 639.375C545.864 639.477 545.457 639.477 545.07 639.375C545.007 639.357 544.949 639.323 544.889 639.3C544.762 639.253 544.629 639.213 544.508 639.144L489.158 607.223C488.806 607.02 488.514 606.729 488.311 606.377C488.107 606.026 488 605.627 488 605.221V510.271C488 510.063 488.029 509.861 488.081 509.665C488.098 509.599 488.138 509.538 488.161 509.472C488.204 509.351 488.245 509.227 488.308 509.114C488.351 509.039 488.415 508.978 488.467 508.909C488.533 508.817 488.593 508.722 488.671 508.641C488.737 508.575 488.824 508.526 488.899 508.468C488.982 508.399 489.057 508.324 489.152 508.269L516.832 492.308C517.182 492.106 517.579 492 517.984 492C518.388 492 518.785 492.106 519.136 492.308L546.812 508.269H546.818C546.91 508.327 546.988 508.399 547.072 508.465C547.147 508.523 547.23 508.575 547.296 508.638C547.377 508.722 547.435 508.817 547.504 508.909C547.553 508.978 547.619 509.039 547.659 509.114C547.725 509.229 547.763 509.351 547.809 509.472C547.832 509.538 547.872 509.599 547.89 509.668C547.943 509.864 547.97 510.067 547.97 510.271V569.576L571.033 556.275V525.957C571.033 525.755 571.062 525.551 571.114 525.357C571.134 525.288 571.172 525.228 571.195 525.161C571.241 525.04 571.281 524.916 571.344 524.803C571.388 524.728 571.451 524.668 571.5 524.599C571.569 524.506 571.627 524.411 571.707 524.33C571.773 524.264 571.857 524.215 571.932 524.157C572.018 524.088 572.093 524.013 572.185 523.958L599.868 507.998C600.218 507.795 600.615 507.689 601.02 507.689C601.424 507.689 601.822 507.795 602.172 507.998L629.849 523.958C629.947 524.016 630.021 524.088 630.108 524.154C630.18 524.212 630.263 524.264 630.33 524.328C630.41 524.411 630.468 524.506 630.537 524.599C630.589 524.668 630.652 524.728 630.692 524.803C630.759 524.916 630.796 525.04 630.842 525.161C630.868 525.228 630.906 525.288 630.923 525.357ZM626.39 556.275V529.955L616.704 535.54L603.324 543.256V569.576L626.393 556.275H626.39ZM598.713 603.885V577.549L585.551 585.077L547.967 606.562V633.147L598.713 603.885ZM492.614 514.266V603.885L543.354 633.144V606.565L516.846 591.539L516.837 591.533L516.826 591.527C516.737 591.476 516.662 591.401 516.578 591.337C516.506 591.279 516.423 591.233 516.359 591.17L516.354 591.161C516.279 591.089 516.227 591 516.164 590.919C516.106 590.841 516.037 590.775 515.991 590.694L515.988 590.685C515.936 590.599 515.904 590.495 515.867 590.397C515.829 590.31 515.78 590.229 515.757 590.137C515.729 590.028 515.723 589.909 515.711 589.797C515.7 589.71 515.677 589.624 515.677 589.537V589.531V527.567L502.299 519.848L492.614 514.266ZM517.987 496.976L494.926 510.271L517.981 523.566L541.038 510.268L517.981 496.976H517.987ZM529.979 579.949L543.356 572.235V514.266L533.671 519.851L520.291 527.567V585.536L529.979 579.949ZM601.02 512.665L577.963 525.96L601.02 539.255L624.074 525.957L601.02 512.665ZM598.713 543.256L585.332 535.54L575.647 529.955V556.275L589.025 563.988L598.713 569.576V543.256ZM545.658 602.567L579.477 583.228L596.383 573.565L573.343 560.278L546.815 575.576L522.638 589.517L545.658 602.567Z" fill="#FF2D20"/>
<path d="M477.513 488.474C482.555 488.209 486.305 481.574 485.889 473.649C485.767 470.482 484.887 467.389 483.325 464.631L482.742 455.657L482.892 455.619L487.149 413.374C488.139 403.551 484.658 393.708 477.424 386.99C473.12 382.994 468.437 380.862 465.166 385.536C459.737 393.292 464.907 426.449 468.427 445.325L469.244 465.369C467.977 468.276 467.426 471.445 467.635 474.609C468.049 482.531 472.472 488.738 477.513 488.474Z" fill="#FFB6B6"/>
<path d="M451.109 288.807C451.109 288.807 465.636 289.796 468.827 301.578C472.017 313.36 475.78 314.718 471.368 326.946C471.368 326.946 490.25 395.419 486.332 400.384L490.008 418.188L463.02 422.271C463.02 422.271 457.909 411.391 460.624 403.866C463.34 396.34 448.231 367.501 448.231 367.501C448.231 367.501 437.641 334.976 440.094 325.23C442.547 315.484 451.109 288.807 451.109 288.807Z" fill="#99C1F1"/>
</g>
<defs>
<clipPath id="clip0_7_135">
<rect width="672.129" height="669.164" fill="white"/>
</clipPath>
</defs>
</svg>
